<svg xmlns="http://www.w3.org/2000/svg" xmlns:xlink="http://www.w3.org/1999/xlink" width="1200" zoomAndPan="magnify" viewBox="0 0 900 472.499986" height="630" preserveAspectRatio="xMidYMid meet" version="1.0"><defs><g/><clipPath id="318c92f8f7"><path d="M 0.476562 0 L 899.523438 0 L 899.523438 472 L 0.476562 472 Z M 0.476562 0 " clip-rule="nonzero"/></clipPath></defs><g clip-path="url(#318c92f8f7)"><path fill="#ffffff" d="M 0.476562 0 L 899.523438 0 L 899.523438 472 L 0.476562 472 Z M 0.476562 0 " fill-opacity="1" fill-rule="nonzero"/><path fill="#0f1017" d="M 0.476562 0 L 899.523438 0 L 899.523438 472 L 0.476562 472 Z M 0.476562 0 " fill-opacity="1" fill-rule="nonzero"/></g><path fill="#ffffff" d="M 61.632812 203.175781 C 61.632812 203.5625 61.59375 203.945312 61.519531 204.328125 C 61.445312 204.707031 61.332031 205.078125 61.183594 205.4375 C 61.035156 205.796875 60.851562 206.136719 60.636719 206.457031 C 60.417969 206.78125 60.171875 207.078125 59.898438 207.355469 C 59.625 207.628906 59.324219 207.875 59 208.089844 C 58.675781 208.304688 58.335938 208.488281 57.976562 208.636719 C 57.617188 208.785156 57.246094 208.894531 56.863281 208.972656 C 56.484375 209.046875 56.097656 209.085938 55.710938 209.085938 C 55.320312 209.085938 54.933594 209.046875 54.554688 208.972656 C 54.171875 208.894531 53.800781 208.785156 53.441406 208.636719 C 53.082031 208.488281 52.742188 208.304688 52.417969 208.089844 C 52.09375 207.875 51.796875 207.628906 51.519531 207.355469 C 51.246094 207.078125 51 206.78125 50.785156 206.457031 C 50.566406 206.136719 50.386719 205.796875 50.238281 205.4375 C 50.089844 205.078125 49.976562 204.707031 49.898438 204.328125 C 49.824219 203.945312 49.785156 203.5625 49.785156 203.175781 C 49.785156 202.785156 49.824219 202.402344 49.898438 202.019531 C 49.976562 201.640625 50.089844 201.269531 50.238281 200.914062 C 50.386719 200.554688 50.566406 200.214844 50.785156 199.890625 C 51 199.566406 51.246094 199.269531 51.519531 198.996094 C 51.796875 198.71875 52.09375 198.476562 52.417969 198.261719 C 52.742188 198.042969 53.082031 197.863281 53.441406 197.714844 C 53.800781 197.566406 54.171875 197.453125 54.554688 197.378906 C 54.933594 197.300781 55.320312 197.265625 55.710938 197.265625 C 56.097656 197.265625 56.484375 197.300781 56.863281 197.378906 C 57.246094 197.453125 57.617188 197.566406 57.976562 197.714844 C 58.335938 197.863281 58.675781 198.042969 59 198.261719 C 59.324219 198.476562 59.625 198.71875 59.898438 198.996094 C 60.171875 199.269531 60.417969 199.566406 60.636719 199.890625 C 60.851562 200.214844 61.035156 200.554688 61.183594 200.914062 C 61.332031 201.269531 61.445312 201.640625 61.519531 202.019531 C 61.59375 202.402344 61.632812 202.785156 61.632812 203.175781 Z M 61.632812 203.175781 " fill-opacity="0.32" fill-rule="nonzero"/><path fill="#ffffff" d="M 95.828125 203.175781 C 95.828125 203.65625 95.78125 204.132812 95.6875 204.605469 C 95.59375 205.078125 95.453125 205.539062 95.269531 205.984375 C 95.082031 206.429688 94.855469 206.851562 94.589844 207.253906 C 94.320312 207.652344 94.015625 208.023438 93.671875 208.363281 C 93.332031 208.703125 92.960938 209.007812 92.558594 209.277344 C 92.15625 209.542969 91.734375 209.769531 91.289062 209.957031 C 90.839844 210.140625 90.382812 210.277344 89.90625 210.371094 C 89.433594 210.46875 88.957031 210.515625 88.472656 210.515625 C 87.988281 210.515625 87.511719 210.46875 87.039062 210.371094 C 86.5625 210.277344 86.105469 210.140625 85.65625 209.957031 C 85.210938 209.769531 84.789062 209.542969 84.386719 209.277344 C 83.984375 209.007812 83.613281 208.703125 83.273438 208.363281 C 82.929688 208.023438 82.625 207.652344 82.355469 207.253906 C 82.089844 206.851562 81.863281 206.429688 81.675781 205.984375 C 81.492188 205.539062 81.351562 205.078125 81.257812 204.605469 C 81.164062 204.132812 81.117188 203.65625 81.117188 203.175781 C 81.117188 202.691406 81.164062 202.214844 81.257812 201.742188 C 81.351562 201.269531 81.492188 200.8125 81.675781 200.367188 C 81.863281 199.921875 82.089844 199.496094 82.355469 199.097656 C 82.625 198.695312 82.929688 198.324219 83.273438 197.984375 C 83.613281 197.644531 83.984375 197.339844 84.386719 197.070312 C 84.789062 196.804688 85.210938 196.578125 85.65625 196.394531 C 86.105469 196.210938 86.5625 196.070312 87.039062 195.976562 C 87.511719 195.882812 87.988281 195.835938 88.472656 195.835938 C 88.957031 195.835938 89.433594 195.882812 89.90625 195.976562 C 90.382812 196.070312 90.839844 196.210938 91.289062 196.394531 C 91.734375 196.578125 92.15625 196.804688 92.558594 197.070312 C 92.960938 197.339844 93.332031 197.644531 93.671875 197.984375 C 94.015625 198.324219 94.320312 198.695312 94.589844 199.097656 C 94.855469 199.496094 95.082031 199.921875 95.269531 200.367188 C 95.453125 200.8125 95.59375 201.269531 95.6875 201.742188 C 95.78125 202.214844 95.828125 202.691406 95.828125 203.175781 Z M 95.828125 203.175781 " fill-opacity="0.55" fill-rule="nonzero"/><path fill="#ffffff" d="M 127.160156 203.175781 C 127.160156 203.5625 127.121094 203.945312 127.046875 204.328125 C 126.96875 204.707031 126.855469 205.078125 126.707031 205.4375 C 126.558594 205.796875 126.375 206.136719 126.160156 206.457031 C 125.945312 206.78125 125.699219 207.078125 125.425781 207.355469 C 125.148438 207.628906 124.851562 207.875 124.527344 208.089844 C 124.203125 208.304688 123.863281 208.488281 123.503906 208.636719 C 123.144531 208.785156 122.773438 208.894531 122.390625 208.972656 C 122.007812 209.046875 121.625 209.085938 121.234375 209.085938 C 120.847656 209.085938 120.460938 209.046875 120.078125 208.972656 C 119.699219 208.894531 119.328125 208.785156 118.96875 208.636719 C 118.609375 208.488281 118.269531 208.304688 117.945312 208.089844 C 117.621094 207.875 117.320312 207.628906 117.046875 207.355469 C 116.773438 207.078125 116.527344 206.78125 116.308594 206.457031 C 116.09375 206.136719 115.910156 205.796875 115.761719 205.4375 C 115.613281 205.078125 115.5 204.707031 115.425781 204.328125 C 115.351562 203.945312 115.3125 203.5625 115.3125 203.175781 C 115.3125 202.785156 115.351562 202.402344 115.425781 202.019531 C 115.5 201.640625 115.613281 201.269531 115.761719 200.914062 C 115.910156 200.554688 116.09375 200.214844 116.308594 199.890625 C 116.527344 199.566406 116.773438 199.269531 117.046875 198.996094 C 117.320312 198.71875 117.621094 198.476562 117.945312 198.261719 C 118.269531 198.042969 118.609375 197.863281 118.96875 197.714844 C 119.328125 197.566406 119.699219 197.453125 120.078125 197.378906 C 120.460938 197.300781 120.847656 197.265625 121.234375 197.265625 C 121.625 197.265625 122.007812 197.300781 122.390625 197.378906 C 122.773438 197.453125 123.144531 197.566406 123.503906 197.714844 C 123.863281 197.863281 124.203125 198.042969 124.527344 198.261719 C 124.851562 198.476562 125.148438 198.71875 125.425781 198.996094 C 125.699219 199.269531 125.945312 199.566406 126.160156 199.890625 C 126.375 200.214844 126.558594 200.554688 126.707031 200.914062 C 126.855469 201.269531 126.96875 201.640625 127.046875 202.019531 C 127.121094 202.402344 127.160156 202.785156 127.160156 203.175781 Z M 127.160156 203.175781 " fill-opacity="0.32" fill-rule="nonzero"/><path fill="#ffffff" d="M 63.066406 235.867188 C 63.066406 236.347656 63.019531 236.824219 62.921875 237.296875 C 62.828125 237.769531 62.691406 238.230469 62.503906 238.675781 C 62.320312 239.121094 62.09375 239.542969 61.824219 239.945312 C 61.558594 240.34375 61.253906 240.714844 60.910156 241.058594 C 60.570312 241.398438 60.199219 241.703125 59.796875 241.96875 C 59.394531 242.238281 58.96875 242.464844 58.523438 242.648438 C 58.078125 242.832031 57.617188 242.972656 57.144531 243.066406 C 56.671875 243.160156 56.191406 243.207031 55.710938 243.207031 C 55.226562 243.207031 54.75 243.160156 54.273438 243.066406 C 53.800781 242.972656 53.339844 242.832031 52.894531 242.648438 C 52.449219 242.464844 52.023438 242.238281 51.625 241.96875 C 51.222656 241.703125 50.851562 241.398438 50.507812 241.058594 C 50.167969 240.714844 49.863281 240.34375 49.59375 239.945312 C 49.324219 239.542969 49.097656 239.121094 48.914062 238.675781 C 48.730469 238.230469 48.589844 237.769531 48.496094 237.296875 C 48.402344 236.824219 48.355469 236.347656 48.355469 235.867188 C 48.355469 235.386719 48.402344 234.90625 48.496094 234.433594 C 48.589844 233.960938 48.730469 233.503906 48.914062 233.058594 C 49.097656 232.613281 49.324219 232.191406 49.59375 231.789062 C 49.863281 231.386719 50.167969 231.019531 50.507812 230.675781 C 50.851562 230.335938 51.222656 230.03125 51.625 229.765625 C 52.023438 229.496094 52.449219 229.269531 52.894531 229.085938 C 53.339844 228.902344 53.800781 228.761719 54.273438 228.667969 C 54.75 228.574219 55.226562 228.527344 55.710938 228.527344 C 56.191406 228.527344 56.671875 228.574219 57.144531 228.667969 C 57.617188 228.761719 58.078125 228.902344 58.523438 229.085938 C 58.96875 229.269531 59.394531 229.496094 59.796875 229.765625 C 60.199219 230.03125 60.570312 230.335938 60.910156 230.675781 C 61.253906 231.019531 61.558594 231.386719 61.824219 231.789062 C 62.09375 232.191406 62.320312 232.613281 62.503906 233.058594 C 62.691406 233.503906 62.828125 233.960938 62.921875 234.433594 C 63.019531 234.90625 63.066406 235.386719 63.066406 235.867188 Z M 63.066406 235.867188 " fill-opacity="0.55" fill-rule="nonzero"/><path fill="#ffffff" d="M 98.628906 235.867188 C 98.628906 236.53125 98.5625 237.191406 98.433594 237.84375 C 98.304688 238.496094 98.109375 239.128906 97.855469 239.746094 C 97.601562 240.359375 97.289062 240.945312 96.917969 241.496094 C 96.546875 242.050781 96.125 242.5625 95.652344 243.03125 C 95.183594 243.503906 94.667969 243.925781 94.113281 244.292969 C 93.5625 244.664062 92.976562 244.976562 92.359375 245.230469 C 91.742188 245.484375 91.109375 245.675781 90.453125 245.808594 C 89.800781 245.9375 89.140625 246 88.472656 246 C 87.804688 246 87.144531 245.9375 86.492188 245.808594 C 85.835938 245.675781 85.203125 245.484375 84.585938 245.230469 C 83.96875 244.976562 83.382812 244.664062 82.828125 244.292969 C 82.273438 243.925781 81.761719 243.503906 81.289062 243.03125 C 80.820312 242.5625 80.398438 242.050781 80.027344 241.496094 C 79.65625 240.945312 79.34375 240.359375 79.089844 239.746094 C 78.832031 239.128906 78.640625 238.496094 78.511719 237.84375 C 78.382812 237.191406 78.316406 236.53125 78.316406 235.867188 C 78.316406 235.203125 78.382812 234.542969 78.511719 233.890625 C 78.640625 233.238281 78.832031 232.601562 79.089844 231.988281 C 79.34375 231.375 79.65625 230.789062 80.027344 230.238281 C 80.398438 229.683594 80.820312 229.171875 81.289062 228.699219 C 81.761719 228.230469 82.273438 227.808594 82.828125 227.441406 C 83.382812 227.070312 83.96875 226.757812 84.585938 226.503906 C 85.203125 226.25 85.835938 226.058594 86.492188 225.925781 C 87.144531 225.796875 87.804688 225.730469 88.472656 225.730469 C 89.140625 225.730469 89.800781 225.796875 90.453125 225.925781 C 91.109375 226.058594 91.742188 226.25 92.359375 226.503906 C 92.976562 226.757812 93.5625 227.070312 94.113281 227.441406 C 94.667969 227.808594 95.183594 228.230469 95.652344 228.699219 C 96.125 229.171875 96.546875 229.683594 96.917969 230.238281 C 97.289062 230.789062 97.601562 231.375 97.855469 231.988281 C 98.109375 232.601562 98.304688 233.238281 98.433594 233.890625 C 98.5625 234.542969 98.628906 235.203125 98.628906 235.867188 Z M 98.628906 235.867188 " fill-opacity="1" fill-rule="nonzero"/><path fill="#ffffff" d="M 128.589844 235.867188 C 128.589844 236.347656 128.542969 236.824219 128.449219 237.296875 C 128.355469 237.769531 128.214844 238.230469 128.03125 238.675781 C 127.847656 239.121094 127.621094 239.542969 127.351562 239.945312 C 127.082031 240.34375 126.777344 240.714844 126.4375 241.058594 C 126.09375 241.398438 125.722656 241.703125 125.320312 241.96875 C 124.921875 242.238281 124.496094 242.464844 124.050781 242.648438 C 123.605469 242.832031 123.144531 242.972656 122.671875 243.066406 C 122.195312 243.160156 121.71875 243.207031 121.234375 243.207031 C 120.753906 243.207031 120.273438 243.160156 119.800781 243.066406 C 119.328125 242.972656 118.867188 242.832031 118.421875 242.648438 C 117.972656 242.464844 117.550781 242.238281 117.148438 241.96875 C 116.746094 241.703125 116.375 241.398438 116.035156 241.058594 C 115.691406 240.714844 115.386719 240.34375 115.121094 239.945312 C 114.851562 239.542969 114.625 239.121094 114.441406 238.675781 C 114.253906 238.230469 114.117188 237.769531 114.019531 237.296875 C 113.925781 236.824219 113.878906 236.347656 113.878906 235.867188 C 113.878906 235.386719 113.925781 234.90625 114.019531 234.433594 C 114.117188 233.960938 114.253906 233.503906 114.441406 233.058594 C 114.625 232.613281 114.851562 232.191406 115.121094 231.789062 C 115.386719 231.386719 115.691406 231.019531 116.035156 230.675781 C 116.375 230.335938 116.746094 230.03125 117.148438 229.765625 C 117.550781 229.496094 117.972656 229.269531 118.421875 229.085938 C 118.867188 228.902344 119.328125 228.761719 119.800781 228.667969 C 120.273438 228.574219 120.753906 228.527344 121.234375 228.527344 C 121.71875 228.527344 122.195312 228.574219 122.671875 228.667969 C 123.144531 228.761719 123.605469 228.902344 124.050781 229.085938 C 124.496094 229.269531 124.921875 229.496094 125.320312 229.765625 C 125.722656 230.03125 126.09375 230.335938 126.4375 230.675781 C 126.777344 231.019531 127.082031 231.386719 127.351562 231.789062 C 127.621094 232.191406 127.847656 232.613281 128.03125 233.058594 C 128.214844 233.503906 128.355469 233.960938 128.449219 234.433594 C 128.542969 234.90625 128.589844 235.386719 128.589844 235.867188 Z M 128.589844 235.867188 " fill-opacity="0.55" fill-rule="nonzero"/><path fill="#ffffff" d="M 61.632812 268.558594 C 61.632812 268.949219 61.59375 269.332031 61.519531 269.710938 C 61.445312 270.09375 61.332031 270.460938 61.183594 270.820312 C 61.035156 271.179688 60.851562 271.519531 60.636719 271.84375 C 60.417969 272.164062 60.171875 272.464844 59.898438 272.738281 C 59.625 273.011719 59.324219 273.257812 59 273.472656 C 58.675781 273.691406 58.335938 273.871094 57.976562 274.019531 C 57.617188 274.167969 57.246094 274.28125 56.863281 274.355469 C 56.484375 274.433594 56.097656 274.46875 55.710938 274.46875 C 55.320312 274.46875 54.933594 274.433594 54.554688 274.355469 C 54.171875 274.28125 53.800781 274.167969 53.441406 274.019531 C 53.082031 273.871094 52.742188 273.691406 52.417969 273.472656 C 52.09375 273.257812 51.796875 273.011719 51.519531 272.738281 C 51.246094 272.464844 51 272.164062 50.785156 271.84375 C 50.566406 271.519531 50.386719 271.179688 50.238281 270.820312 C 50.089844 270.460938 49.976562 270.09375 49.898438 269.710938 C 49.824219 269.332031 49.785156 268.949219 49.785156 268.558594 C 49.785156 268.171875 49.824219 267.785156 49.898438 267.40625 C 49.976562 267.027344 50.089844 266.65625 50.238281 266.296875 C 50.386719 265.9375 50.566406 265.597656 50.785156 265.277344 C 51 264.953125 51.246094 264.652344 51.519531 264.378906 C 51.796875 264.105469 52.09375 263.859375 52.417969 263.644531 C 52.742188 263.429688 53.082031 263.246094 53.441406 263.097656 C 53.800781 262.949219 54.171875 262.835938 54.554688 262.761719 C 54.933594 262.6875 55.320312 262.648438 55.710938 262.648438 C 56.097656 262.648438 56.484375 262.6875 56.863281 262.761719 C 57.246094 262.835938 57.617188 262.949219 57.976562 263.097656 C 58.335938 263.246094 58.675781 263.429688 59 263.644531 C 59.324219 263.859375 59.625 264.105469 59.898438 264.378906 C 60.171875 264.652344 60.417969 264.953125 60.636719 265.277344 C 60.851562 265.597656 61.035156 265.9375 61.183594 266.296875 C 61.332031 266.65625 61.445312 267.027344 61.519531 267.40625 C 61.59375 267.785156 61.632812 268.171875 61.632812 268.558594 Z M 61.632812 268.558594 " fill-opacity="0.32" fill-rule="nonzero"/><path fill="#ffffff" d="M 95.828125 268.558594 C 95.828125 269.042969 95.78125 269.519531 95.6875 269.992188 C 95.59375 270.464844 95.453125 270.921875 95.269531 271.367188 C 95.082031 271.8125 94.855469 272.234375 94.589844 272.636719 C 94.320312 273.039062 94.015625 273.410156 93.671875 273.75 C 93.332031 274.089844 92.960938 274.394531 92.558594 274.660156 C 92.15625 274.929688 91.734375 275.15625 91.289062 275.339844 C 90.839844 275.523438 90.382812 275.664062 89.90625 275.757812 C 89.433594 275.851562 88.957031 275.898438 88.472656 275.898438 C 87.988281 275.898438 87.511719 275.851562 87.039062 275.757812 C 86.5625 275.664062 86.105469 275.523438 85.65625 275.339844 C 85.210938 275.15625 84.789062 274.929688 84.386719 274.660156 C 83.984375 274.394531 83.613281 274.089844 83.273438 273.75 C 82.929688 273.410156 82.625 273.039062 82.355469 272.636719 C 82.089844 272.234375 81.863281 271.8125 81.675781 271.367188 C 81.492188 270.921875 81.351562 270.464844 81.257812 269.992188 C 81.164062 269.519531 81.117188 269.042969 81.117188 268.558594 C 81.117188 268.078125 81.164062 267.601562 81.257812 267.128906 C 81.351562 266.65625 81.492188 266.195312 81.675781 265.75 C 81.863281 265.304688 82.089844 264.882812 82.355469 264.480469 C 82.625 264.082031 82.929688 263.710938 83.273438 263.371094 C 83.613281 263.027344 83.984375 262.722656 84.386719 262.457031 C 84.789062 262.1875 85.210938 261.964844 85.65625 261.777344 C 86.105469 261.59375 86.5625 261.453125 87.039062 261.359375 C 87.511719 261.265625 87.988281 261.21875 88.472656 261.21875 C 88.957031 261.21875 89.433594 261.265625 89.90625 261.359375 C 90.382812 261.453125 90.839844 261.59375 91.289062 261.777344 C 91.734375 261.964844 92.15625 262.1875 92.558594 262.457031 C 92.960938 262.722656 93.332031 263.027344 93.671875 263.371094 C 94.015625 263.710938 94.320312 264.082031 94.589844 264.480469 C 94.855469 264.882812 95.082031 265.304688 95.269531 265.75 C 95.453125 266.195312 95.59375 266.65625 95.6875 267.128906 C 95.78125 267.601562 95.828125 268.078125 95.828125 268.558594 Z M 95.828125 268.558594 " fill-opacity="0.55" fill-rule="nonzero"/><path fill="#ffffff" d="M 127.160156 268.558594 C 127.160156 268.949219 127.121094 269.332031 127.046875 269.710938 C 126.96875 270.09375 126.855469 270.460938 126.707031 270.820312 C 126.558594 271.179688 126.375 271.519531 126.160156 271.84375 C 125.945312 272.164062 125.699219 272.464844 125.425781 272.738281 C 125.148438 273.011719 124.851562 273.257812 124.527344 273.472656 C 124.203125 273.691406 123.863281 273.871094 123.503906 274.019531 C 123.144531 274.167969 122.773438 274.28125 122.390625 274.355469 C 122.007812 274.433594 121.625 274.46875 121.234375 274.46875 C 120.847656 274.46875 120.460938 274.433594 120.078125 274.355469 C 119.699219 274.28125 119.328125 274.167969 118.96875 274.019531 C 118.609375 273.871094 118.269531 273.691406 117.945312 273.472656 C 117.621094 273.257812 117.320312 273.011719 117.046875 272.738281 C 116.773438 272.464844 116.527344 272.164062 116.308594 271.84375 C 116.09375 271.519531 115.910156 271.179688 115.761719 270.820312 C 115.613281 270.460938 115.5 270.09375 115.425781 269.710938 C 115.351562 269.332031 115.3125 268.949219 115.3125 268.558594 C 115.3125 268.171875 115.351562 267.785156 115.425781 267.40625 C 115.5 267.027344 115.613281 266.65625 115.761719 266.296875 C 115.910156 265.9375 116.09375 265.597656 116.308594 265.277344 C 116.527344 264.953125 116.773438 264.652344 117.046875 264.378906 C 117.320312 264.105469 117.621094 263.859375 117.945312 263.644531 C 118.269531 263.429688 118.609375 263.246094 118.96875 263.097656 C 119.328125 262.949219 119.699219 262.835938 120.078125 262.761719 C 120.460938 262.6875 120.847656 262.648438 121.234375 262.648438 C 121.625 262.648438 122.007812 262.6875 122.390625 262.761719 C 122.773438 262.835938 123.144531 262.949219 123.503906 263.097656 C 123.863281 263.246094 124.203125 263.429688 124.527344 263.644531 C 124.851562 263.859375 125.148438 264.105469 125.425781 264.378906 C 125.699219 264.652344 125.945312 264.953125 126.160156 265.277344 C 126.375 265.597656 126.558594 265.9375 126.707031 266.296875 C 126.855469 266.65625 126.96875 267.027344 127.046875 267.40625 C 127.121094 267.785156 127.160156 268.171875 127.160156 268.558594 Z M 127.160156 268.558594 " fill-opacity="0.32" fill-rule="nonzero"/><path stroke-linecap="butt" transform="matrix(3.003295, 0, 0, 2.996829, 16.393991, 163.943641)" fill="none" stroke-linejoin="miter" d="M 55.999864 6.719901 L 55.999864 41.279873 " stroke="#ffffff" stroke-width="1" stroke-opacity="0.28" stroke-miterlimit="4"/><g fill="#ffffff" fill-opacity="1"><g transform="translate(232.631249, 266.156184)"><g><path d="M 34.046875 0.875 C 24.484375 0.875 17.03125 -1.71875 11.6875 -6.90625 C 6.351562 -12.101562 3.6875 -19.382812 3.6875 -28.75 C 3.6875 -38.875 6.253906 -46.535156 11.390625 -51.734375 C 16.523438 -56.929688 24.132812 -59.53125 34.21875 -59.53125 C 40.351562 -59.53125 46.941406 -58.78125 53.984375 -57.28125 L 54.234375 -44.421875 L 51.34375 -44.421875 L 50.015625 -52.0625 C 47.960938 -53.320312 45.578125 -54.296875 42.859375 -54.984375 C 40.148438 -55.671875 37.390625 -56.015625 34.578125 -56.015625 C 27.035156 -56.015625 21.535156 -53.804688 18.078125 -49.390625 C 14.617188 -44.972656 12.890625 -38.125 12.890625 -28.84375 C 12.890625 -20.289062 14.695312 -13.757812 18.3125 -9.25 C 21.9375 -4.75 27.210938 -2.5 34.140625 -2.5 C 37.484375 -2.5 40.632812 -2.898438 43.59375 -3.703125 C 46.550781 -4.515625 48.898438 -5.59375 50.640625 -6.9375 L 52.265625 -15.71875 L 55.125 -15.71875 L 54.859375 -1.890625 C 48.398438 -0.046875 41.460938 0.875 34.046875 0.875 Z M 34.046875 0.875 "/></g></g></g><g fill="#ffffff" fill-opacity="1"><g transform="translate(295.123253, 266.156184)"><g><path d="M 12.890625 -29.5 C 12.890625 -20.050781 14.472656 -13.203125 17.640625 -8.953125 C 20.804688 -4.710938 25.765625 -2.59375 32.515625 -2.59375 C 39.222656 -2.59375 44.175781 -4.710938 47.375 -8.953125 C 50.570312 -13.203125 52.171875 -20.050781 52.171875 -29.5 C 52.171875 -38.894531 50.578125 -45.660156 47.390625 -49.796875 C 44.210938 -53.941406 39.253906 -56.015625 32.515625 -56.015625 C 25.734375 -56.015625 20.765625 -53.941406 17.609375 -49.796875 C 14.460938 -45.660156 12.890625 -38.894531 12.890625 -29.5 Z M 3.6875 -29.5 C 3.6875 -49.519531 13.296875 -59.53125 32.515625 -59.53125 C 42.015625 -59.53125 49.195312 -56.988281 54.0625 -51.90625 C 58.9375 -46.832031 61.375 -39.363281 61.375 -29.5 C 61.375 -19.488281 58.910156 -11.921875 53.984375 -6.796875 C 49.054688 -1.679688 41.898438 0.875 32.515625 0.875 C 23.148438 0.875 16.003906 -1.675781 11.078125 -6.78125 C 6.148438 -11.882812 3.6875 -19.457031 3.6875 -29.5 Z M 3.6875 -29.5 "/></g></g></g><g fill="#ffffff" fill-opacity="1"><g transform="translate(362.586052, 266.156184)"><g><path d="M 50.8125 -55.40625 L 42.890625 -56.546875 L 42.890625 -58.875 L 63 -58.875 L 63 -56.546875 L 55.421875 -55.40625 L 55.421875 0 L 51.15625 0 L 14.78125 -52.9375 L 14.78125 -3.515625 L 22.703125 -2.328125 L 22.703125 0 L 2.59375 0 L 2.59375 -2.328125 L 10.15625 -3.515625 L 10.15625 -55.40625 L 2.59375 -56.546875 L 2.59375 -58.875 L 20.453125 -58.875 L 50.8125 -15.28125 Z M 50.8125 -55.40625 "/></g></g></g><g fill="#ffffff" fill-opacity="1"><g transform="translate(430.04884, 266.156184)"><g><path d="M 64.046875 -58.875 L 64.046875 -56.546875 L 57.578125 -55.40625 L 33.875 1.359375 L 31.625 1.359375 L 7.65625 -55.40625 L 1.015625 -56.546875 L 1.015625 -58.875 L 24.859375 -58.875 L 24.859375 -56.546875 L 16.9375 -55.40625 L 34.796875 -12.078125 L 52.609375 -55.40625 L 44.875 -56.546875 L 44.875 -58.875 Z M 64.046875 -58.875 "/></g></g></g><g fill="#ffffff" fill-opacity="1"><g transform="translate(497.511639, 266.156184)"><g><path d="M 12.890625 -29.5 C 12.890625 -20.050781 14.472656 -13.203125 17.640625 -8.953125 C 20.804688 -4.710938 25.765625 -2.59375 32.515625 -2.59375 C 39.222656 -2.59375 44.175781 -4.710938 47.375 -8.953125 C 50.570312 -13.203125 52.171875 -20.050781 52.171875 -29.5 C 52.171875 -38.894531 50.578125 -45.660156 47.390625 -49.796875 C 44.210938 -53.941406 39.253906 -56.015625 32.515625 -56.015625 C 25.734375 -56.015625 20.765625 -53.941406 17.609375 -49.796875 C 14.460938 -45.660156 12.890625 -38.894531 12.890625 -29.5 Z M 3.6875 -29.5 C 3.6875 -49.519531 13.296875 -59.53125 32.515625 -59.53125 C 42.015625 -59.53125 49.195312 -56.988281 54.0625 -51.90625 C 58.9375 -46.832031 61.375 -39.363281 61.375 -29.5 C 61.375 -19.488281 58.910156 -11.921875 53.984375 -6.796875 C 49.054688 -1.679688 41.898438 0.875 32.515625 0.875 C 23.148438 0.875 16.003906 -1.675781 11.078125 -6.78125 C 6.148438 -11.882812 3.6875 -19.457031 3.6875 -29.5 Z M 3.6875 -29.5 "/></g></g></g><g fill="#ffffff" fill-opacity="1"><g transform="translate(564.974438, 266.156184)"><g><path d="M 27.765625 -56.546875 L 18.65625 -55.40625 L 18.65625 -3.78125 L 30.265625 -3.78125 C 36.515625 -3.78125 41.101562 -4.070312 44.03125 -4.65625 L 46.765625 -16.90625 L 49.625 -16.90625 L 48.828125 0 L 2.59375 0 L 2.59375 -2.328125 L 10.15625 -3.515625 L 10.15625 -55.40625 L 2.59375 -56.546875 L 2.59375 -58.875 L 27.765625 -58.875 Z M 27.765625 -56.546875 "/></g></g></g><g fill="#ffffff" fill-opacity="1"><g transform="translate(614.137234, 266.156184)"><g><path d="M 64.046875 -58.875 L 64.046875 -56.546875 L 57.578125 -55.40625 L 33.875 1.359375 L 31.625 1.359375 L 7.65625 -55.40625 L 1.015625 -56.546875 L 1.015625 -58.875 L 24.859375 -58.875 L 24.859375 -56.546875 L 16.9375 -55.40625 L 34.796875 -12.078125 L 52.609375 -55.40625 L 44.875 -56.546875 L 44.875 -58.875 Z M 64.046875 -58.875 "/></g></g></g><g fill="#ffffff" fill-opacity="1"><g transform="translate(681.600033, 266.156184)"><g><path d="M 19.265625 -3.515625 L 26.828125 -2.328125 L 26.828125 0 L 3.25 0 L 3.25 -2.328125 L 10.828125 -3.515625 L 10.828125 -55.40625 L 3.25 -56.546875 L 3.25 -58.875 L 26.828125 -58.875 L 26.828125 -56.546875 L 19.265625 -55.40625 Z M 19.265625 -3.515625 "/></g></g></g><g fill="#ffffff" fill-opacity="1"><g transform="translate(714.003372, 266.156184)"><g><path d="M 50.8125 -55.40625 L 42.890625 -56.546875 L 42.890625 -58.875 L 63 -58.875 L 63 -56.546875 L 55.421875 -55.40625 L 55.421875 0 L 51.15625 0 L 14.78125 -52.9375 L 14.78125 -3.515625 L 22.703125 -2.328125 L 22.703125 0 L 2.59375 0 L 2.59375 -2.328125 L 10.15625 -3.515625 L 10.15625 -55.40625 L 2.59375 -56.546875 L 2.59375 -58.875 L 20.453125 -58.875 L 50.8125 -15.28125 Z M 50.8125 -55.40625 "/></g></g></g><g fill="#ffffff" fill-opacity="1"><g transform="translate(781.466171, 266.156184)"><g><path d="M 56.484375 -3.078125 C 53.078125 -1.960938 49.539062 -1.023438 45.875 -0.265625 C 42.21875 0.492188 38.273438 0.875 34.046875 0.875 C 24.484375 0.875 17.03125 -1.695312 11.6875 -6.84375 C 6.351562 -12 3.6875 -19.300781 3.6875 -28.75 C 3.6875 -39.050781 6.273438 -46.753906 11.453125 -51.859375 C 16.628906 -56.972656 24.21875 -59.53125 34.21875 -59.53125 C 41.375 -59.53125 48.28125 -58.648438 54.9375 -56.890625 L 54.9375 -44.25 L 52 -44.25 L 50.8125 -51.53125 C 48.789062 -52.96875 46.363281 -54.070312 43.53125 -54.84375 C 40.695312 -55.625 37.710938 -56.015625 34.578125 -56.015625 C 27.066406 -56.015625 21.570312 -53.78125 18.09375 -49.3125 C 14.625 -44.851562 12.890625 -38.03125 12.890625 -28.84375 C 12.890625 -20.207031 14.675781 -13.65625 18.25 -9.1875 C 21.832031 -4.726562 27.128906 -2.5 34.140625 -2.5 C 36.597656 -2.5 39.175781 -2.789062 41.875 -3.375 C 44.570312 -3.96875 46.625 -4.671875 48.03125 -5.484375 L 48.03125 -22.21875 L 40.46875 -23.359375 L 40.46875 -25.71875 L 62.25 -25.71875 L 62.25 -23.359375 L 56.484375 -22.21875 Z M 56.484375 -3.078125 "/></g></g></g></svg>