<svg width="1332" height="362" viewBox="0 0 1332 362" fill="none" xmlns="http://www.w3.org/2000/svg">
<rect width="1332" height="362" fill="white"/>
<path d="M54 263.6C54 263.048 54.4477 262.6 55 262.6H1277.58C1278.13 262.6 1278.58 263.048 1278.58 263.6V276C1278.58 276.552 1278.13 277 1277.58 277H55C54.4477 277 54 276.552 54 276V263.6Z" fill="url(#paint0_linear_10_6392)" fill-opacity="0.8"/>
<path d="M187.171 166.331H98.928V213.333C98.928 230.382 102.845 235.912 122.89 235.451V242.133H54V235.451C73.584 235.682 77.5008 230.382 77.5008 214.715V111.496C77.5008 96.9808 73.1232 91.2208 54 91.6816V85H122.89V91.6816C106.992 91.2208 98.928 94.4464 98.928 111.035V157.576H187.171V111.035C187.171 96.9808 182.102 91.2208 163.21 91.6816V85H232.099V91.6816C212.746 91.4512 208.598 96.52 208.598 111.496V215.176C208.598 230.613 213.437 236.373 232.099 235.451V242.133H163.21V235.451C183.024 235.912 187.171 229.461 187.171 215.867V166.331Z" fill="#444444"/>
<path d="M381.685 132.232V188.45H375.003C372.699 171.63 364.405 163.797 341.825 163.797H312.334V211.72C312.334 233.147 314.408 235.451 343.899 235.451C376.155 235.451 390.44 224.162 400.808 205.038H408.181L398.734 242.133H266.485V235.451C285.838 236.142 290.907 230.613 290.907 214.946V111.266C290.907 96.2896 285.608 91.2208 266.485 91.6816V85H395.278L396.661 118.869H389.979C384.68 101.589 374.081 91.6816 350.811 91.6816H312.334V157.115H343.438C362.331 157.115 374.312 150.434 375.003 132.232H381.685Z" fill="#444444"/>
<path d="M441.416 85H520.904C556.846 85 572.974 102.741 572.974 122.325C572.974 137.762 563.297 155.272 527.816 159.189V159.65C559.381 162.875 579.425 175.547 579.425 200.43C579.425 219.093 564.219 242.133 521.134 242.133H441.416V235.451C462.843 235.912 465.147 228.539 465.147 214.946V110.805C465.147 98.5936 462.152 91.2208 441.416 91.6816V85ZM486.574 163.106V219.093C486.574 231.074 492.795 235.451 509.384 235.451H521.365C541.87 235.451 554.542 222.549 554.542 201.122C554.542 176.008 535.88 163.106 504.776 163.106H486.574ZM486.574 156.424H508.693C537.032 156.424 548.782 143.982 548.782 125.781C548.782 107.349 536.801 91.6816 512.84 91.6816H486.574V156.424Z" fill="#444444"/>
<path d="M620.381 85H699.869C735.811 85 751.939 102.741 751.939 122.325C751.939 137.762 742.262 155.272 706.781 159.189V159.65C738.346 162.875 758.39 175.547 758.39 200.43C758.39 219.093 743.184 242.133 700.099 242.133H620.381V235.451C641.808 235.912 644.112 228.539 644.112 214.946V110.805C644.112 98.5936 641.117 91.2208 620.381 91.6816V85ZM665.539 163.106V219.093C665.539 231.074 671.76 235.451 688.349 235.451H700.33C720.835 235.451 733.507 222.549 733.507 201.122C733.507 176.008 714.845 163.106 683.741 163.106H665.539ZM665.539 156.424H687.658C715.997 156.424 727.747 143.982 727.747 125.781C727.747 107.349 715.766 91.6816 691.805 91.6816H665.539V156.424Z" fill="#444444"/>
<path d="M798.194 85H869.618V91.6816C851.647 90.9904 844.735 95.5984 844.735 110.344V215.637C844.735 230.382 849.803 236.373 869.618 235.451V242.133H798.194V235.451C818.008 235.912 823.307 231.074 823.307 216.328V110.344C823.307 96.9808 819.391 90.9904 798.194 91.6816V85Z" fill="#444444"/>
<path d="M1005.9 179.925H944.156L937.705 196.974C933.557 208.034 931.945 213.333 931.945 218.171C931.945 228.539 939.087 234.76 951.989 235.451V242.133H899.458V235.451C908.213 234.99 915.356 228.078 925.033 203.886L969.5 93.064L966.044 85H987.471L1040.92 211.72C1048.3 229.23 1053.83 233.608 1063.73 235.451V242.133H1002.45V235.451C1015.58 234.76 1021.57 231.304 1021.57 222.779C1021.57 217.941 1020.65 214.024 1014.89 200.661L1005.9 179.925ZM1001.76 170.018L973.417 102.28L947.842 170.018H1001.76Z" fill="#444444"/>
<path d="M1090.58 85H1124.68L1244.95 208.725V119.56C1244.95 100.437 1235.27 91.912 1217.07 91.6816V85H1278.59V91.6816C1258.31 92.6032 1253.7 104.584 1253.7 127.624V216.328C1253.7 224.392 1257.16 238.677 1257.16 244.206H1244.95C1241.95 238.907 1232.97 227.848 1226.98 221.858L1130.44 121.403V209.877C1130.44 226.696 1140.81 234.53 1158.78 235.451V242.133H1094.27V235.451C1111.08 236.603 1121.68 226.005 1121.68 209.877V113.109L1112.7 103.893C1103.48 94.216 1099.33 92.3728 1090.58 91.6816V85Z" fill="#444444"/>
<defs>
<linearGradient id="paint0_linear_10_6392" x1="53.04" y1="262.6" x2="1277.04" y2="262.599" gradientUnits="userSpaceOnUse">
<stop stop-color="#34D399"/>
<stop offset="1" stop-color="#22D3EE"/>
</linearGradient>
</defs>
</svg>
