<svg width="39" height="38" viewBox="0 0 39 38" fill="none" xmlns="http://www.w3.org/2000/svg">
<mask id="mask0_1255_45556" style="mask-type:luminance" maskUnits="userSpaceOnUse" x="0" y="0" width="39" height="38">
<path d="M38.0272 0H0.824219V37.203H38.0272V0Z" fill="white"/>
</mask>
<g mask="url(#mask0_1255_45556)">
<mask id="mask1_1255_45556" style="mask-type:luminance" maskUnits="userSpaceOnUse" x="0" y="0" width="39" height="38">
<path d="M38.0272 0H0.824219V37.203H38.0272V0Z" fill="white"/>
</mask>
<g mask="url(#mask1_1255_45556)">
<mask id="mask2_1255_45556" style="mask-type:luminance" maskUnits="userSpaceOnUse" x="0" y="0" width="39" height="38">
<path d="M38.0272 0H0.824219V37.203H38.0272V0Z" fill="white"/>
</mask>
<g mask="url(#mask2_1255_45556)">
<path d="M22.9106 9.6591C19.5672 9.6591 16.2718 11.0945 13.7559 13.9165V0H8.77734V23.4294V23.4312C8.77734 31.0372 14.9432 37.203 22.5493 37.203C30.1553 37.203 36.3212 31.0372 36.3212 23.4312C36.3212 15.8252 30.5166 9.6591 22.9106 9.6591ZM22.5493 31.8986C17.8727 31.8986 14.0816 28.1075 14.0816 23.4311C14.0816 18.7546 17.8727 14.9634 22.5493 14.9634C27.2257 14.9634 31.0168 18.7546 31.0168 23.4311C31.0168 28.1076 27.2257 31.8986 22.5493 31.8986Z" fill="white"/>
<path d="M5.15948 30.3926C3.27858 30.3926 1.75391 31.9174 1.75391 33.7982C1.75391 35.679 3.27858 37.2037 5.15948 37.2037C7.04036 37.2037 8.56504 35.679 8.56504 33.7982C8.56504 31.9174 7.04036 30.3926 5.15948 30.3926Z" fill="#0000FF"/>
</g>
</g>
</g>
</svg>
