<svg width="64" height="64" viewBox="0 0 64 64" fill="none" xmlns="http://www.w3.org/2000/svg">
<g clip-path="url(#clip0_1876_26404)">
<path fill-rule="evenodd" clip-rule="evenodd" d="M58.9515 49.8529C55.4707 49.7559 52.7703 50.1127 50.507 51.0648C49.8553 51.3265 48.8095 51.3265 48.7236 52.1468C49.0719 52.4909 49.1138 53.0542 49.4192 53.5312C49.9411 54.397 50.8562 55.5634 51.6825 56.1683L54.4678 58.1588C56.1653 59.1962 58.0803 59.8021 59.7339 60.8405C60.6919 61.4464 61.649 62.225 62.607 62.8745C63.0948 63.2207 63.3904 63.784 64.0001 63.9992V63.8683C63.6957 63.4805 63.6079 62.9182 63.3045 62.4838L61.9972 61.2302C60.7358 59.5433 59.1681 58.0715 57.4706 56.8616C56.0775 55.9095 53.0317 54.6123 52.4659 53.0125L52.3801 52.9156C53.3361 52.8186 54.4678 52.4822 55.3829 52.2224C56.8638 51.8346 58.212 51.9199 59.7339 51.5311L61.8246 50.9251V50.5373C61.0412 49.7588 60.4754 48.7204 59.649 47.9855C57.4296 46.0824 54.9907 44.2219 52.4659 42.6648C51.1167 41.8 49.3753 41.2367 47.9392 40.5028C47.4154 40.2429 46.5461 40.113 46.2418 39.6806C45.4564 38.7305 45.0223 37.4749 44.4565 36.3493L40.8878 28.8229C40.1044 27.1359 39.6244 25.4489 38.6684 23.8919C34.1847 16.538 29.3087 12.0831 21.8222 7.71342C20.2125 6.80498 18.2975 6.41426 16.2614 5.93919L12.9972 5.76468C12.2996 5.46218 11.604 4.64003 10.9943 4.25028C8.51343 2.69322 2.11466 -0.680727 0.285459 3.76552C-0.890106 6.57714 2.02685 9.34513 3.01706 10.7732C3.75849 11.768 4.71455 12.8926 5.23844 14.0173C5.53111 14.7522 5.62867 15.5317 5.93402 16.3102C6.62961 18.2134 7.28324 20.3337 8.19735 22.108C8.68514 23.0164 9.19732 23.9695 9.80705 24.7906C10.1553 25.2754 10.7651 25.4829 10.8948 26.2614C10.2851 27.1272 10.2431 28.4234 9.89485 29.5064C8.3271 34.3948 8.93683 40.4504 11.1563 44.0493C11.8538 45.1303 13.4976 47.5105 15.7278 46.6011C17.6867 45.8225 17.2497 43.357 17.8155 41.194C17.9472 40.6753 17.8594 40.3292 18.1199 39.9821V40.0791L19.9052 43.6692C21.2544 45.7886 23.6055 47.9952 25.5635 49.467C26.6074 50.2455 27.4347 51.5873 28.74 52.0624V51.9315H28.6541C28.3927 51.5437 28.0005 51.3692 27.6522 51.0667C26.8688 50.2882 25.9986 49.3361 25.3889 48.4713C23.5616 46.0494 21.9519 43.3667 20.5149 40.5987C19.8174 39.2579 19.2077 37.7871 18.6438 36.4463C18.3804 35.9266 18.3804 35.1471 17.9463 34.8892C17.2926 35.8393 16.3366 36.6634 15.8556 37.8307C15.0283 39.6903 14.9425 41.9832 14.6381 44.3624C14.4625 44.4061 14.5405 44.3624 14.4625 44.4594C13.0713 44.1142 12.5913 42.6852 12.0694 41.4752C10.7641 38.4037 10.5455 33.4727 11.6772 29.9252C11.9816 29.0168 13.2889 26.1615 12.7669 25.2967C12.5035 24.4746 11.6353 23.9995 11.1553 23.3499C10.5894 22.5278 9.98167 21.4904 9.58949 20.5819C8.54563 18.1581 8.0237 15.4774 6.89106 13.0545C6.36717 11.9299 5.45404 10.7616 4.71358 9.72422C3.8863 8.55594 2.97414 7.73378 2.3205 6.35027C2.10295 5.86551 1.79857 5.09571 2.14685 4.57604C2.2327 4.22992 2.4083 4.09128 2.75463 4.01371C3.32046 3.52895 4.93211 4.14363 5.49794 4.40153C7.10763 5.05111 8.45685 5.65609 9.80607 6.56357C10.4158 6.99597 11.0694 7.81813 11.8528 8.03531H12.7679C14.161 8.3378 15.7268 8.13226 17.0312 8.52007C19.3384 9.25691 21.4271 10.337 23.3002 11.5062C29.0014 15.0964 33.7037 20.2009 36.8802 26.3012C37.4021 27.2959 37.6196 28.2043 38.0996 29.2427C39.0147 31.363 40.1464 33.5251 41.0585 35.6028C41.9736 37.6359 42.8438 39.7136 44.1491 41.4005C44.8028 42.309 47.4134 42.784 48.588 43.2601C49.4592 43.6479 50.8074 43.9969 51.5928 44.472C53.0717 45.3804 54.5517 46.4188 55.9438 47.4135C56.6394 47.9313 58.8169 49.0133 58.9466 49.8761L58.9515 49.8529ZM14.563 12.2624C13.9616 12.2571 13.3621 12.3298 12.7796 12.4786V12.5756H12.8655C13.2137 13.2678 13.8235 13.7439 14.2586 14.3498L15.2605 16.4265L15.3463 16.3296C15.9561 15.8972 16.2614 15.2049 16.2614 14.1675C16 13.8651 15.9571 13.5616 15.7395 13.2591C15.478 12.8267 14.9122 12.6095 14.563 12.2644V12.2624Z" fill="#00678C"/>
</g>
<defs>
<clipPath id="clip0_1876_26404">
<rect width="64" height="64" fill="white"/>
</clipPath>
</defs>
</svg>
