<svg width="38" height="38" viewBox="0 0 38 38" fill="none" xmlns="http://www.w3.org/2000/svg">
<g clip-path="url(#clip0_1876_25519)">
<g clip-path="url(#clip1_1876_25519)">
<g clip-path="url(#clip2_1876_25519)">
<path d="M5.83374 0.37101C5.12866 -0.17821 4.12671 -0.111412 3.48843 0.519447L0.519681 3.4882C-0.111178 4.11906 -0.177975 5.12101 0.363822 5.83351L6.30132 13.5523C6.63531 13.9901 7.16226 14.2499 7.71148 14.2499H11.7267L19.8166 22.3398C18.7255 24.4921 19.0743 27.1937 20.8779 28.9898L29.1904 37.3023C30.1181 38.23 31.6248 38.23 32.5525 37.3023L37.3025 32.5523C38.2302 31.6246 38.2302 30.1179 37.3025 29.1901L28.99 20.8776C27.1939 19.0815 24.4924 18.7253 22.34 19.8163L14.2502 11.7265V7.71867C14.2502 7.16202 13.9904 6.64249 13.5525 6.30851L5.83374 0.37101ZM1.4771 29.3979C0.534525 30.3405 0.000149901 31.6246 0.000149901 32.9604C0.000149901 35.7437 2.2564 37.9999 5.0396 37.9999C6.37554 37.9999 7.65952 37.4655 8.6021 36.5229L17.3451 27.78C16.7662 26.2288 16.6771 24.544 17.0779 22.9484L12.4986 18.369L1.4771 29.3979ZM38.0002 10.6874C38.0002 9.90816 37.9185 9.1511 37.7627 8.42374C37.5845 7.59249 36.5677 7.37726 35.9666 7.97843L31.224 12.721C31.0013 12.9437 30.697 13.0698 30.3853 13.0698H26.1252C25.472 13.0698 24.9377 12.5354 24.9377 11.8823V7.61476C24.9377 7.30304 25.0638 6.99874 25.2865 6.77609L30.0291 2.03351C30.6302 1.43234 30.415 0.41554 29.5838 0.237415C28.849 0.0815564 28.0919 -8.41682e-05 27.3127 -8.41682e-05C21.4123 -8.41682e-05 16.6252 4.78702 16.6252 10.6874V10.7468L22.956 17.0776C25.6279 16.4023 28.5818 17.1148 30.6748 19.2077L31.84 20.3729C35.4767 18.666 38.0002 14.9698 38.0002 10.6874ZM4.1564 32.0624C4.1564 31.59 4.34407 31.1369 4.67812 30.8029C5.01217 30.4688 5.46523 30.2812 5.93765 30.2812C6.41006 30.2812 6.86314 30.4688 7.19718 30.8029C7.53124 31.1369 7.7189 31.59 7.7189 32.0624C7.7189 32.5348 7.53124 32.9879 7.19718 33.322C6.86314 33.656 6.41006 33.8437 5.93765 33.8437C5.46523 33.8437 5.01217 33.656 4.67812 33.322C4.34407 32.9879 4.1564 32.5348 4.1564 32.0624Z" fill="white"/>
</g>
</g>
</g>
<defs>
<clipPath id="clip0_1876_25519">
<rect width="38" height="38" fill="white"/>
</clipPath>
<clipPath id="clip1_1876_25519">
<rect width="38" height="38" fill="white"/>
</clipPath>
<clipPath id="clip2_1876_25519">
<rect width="38" height="38" fill="white"/>
</clipPath>
</defs>
</svg>
