<svg width="40" height="41" viewBox="0 0 40 41" fill="none" xmlns="http://www.w3.org/2000/svg">
<path d="M37.3624 16.7811C38.2821 13.9892 37.9654 10.9308 36.4946 8.39127C34.2827 4.49619 29.8362 2.49228 25.4936 3.4353C23.5617 1.23406 20.7861 -0.0177477 17.8762 0.000190171C13.4372 -0.01006 9.49865 2.88051 8.13302 7.15227C5.2814 7.74295 2.81996 9.54826 1.37959 12.107C-0.848743 15.9918 -0.340748 20.8889 2.63628 24.2201C1.71657 27.012 2.03328 30.0705 3.50405 32.61C5.71593 36.5051 10.1624 38.5089 14.5051 37.5659C16.4358 39.7672 19.2126 41.019 22.1225 40.9998C26.564 41.0113 30.5038 38.1182 31.8694 33.8425C34.7211 33.2519 37.1825 31.4466 38.6228 28.8879C40.8486 25.003 40.3394 20.1099 37.3636 16.7785L37.3624 16.7811ZM22.125 38.3206C20.3477 38.3232 18.6261 37.6941 17.2617 36.5422C17.3238 36.509 17.4315 36.4487 17.5011 36.4051L25.5733 31.69C25.9863 31.4529 26.2397 31.0084 26.2371 30.5279V19.0182L29.6486 21.0105C29.6854 21.0285 29.7096 21.0644 29.7146 21.1054V30.6368C29.7096 34.8753 26.3157 38.3116 22.125 38.3206ZM5.80333 31.2698C4.91276 29.7143 4.59225 27.8911 4.89756 26.1216C4.9571 26.1575 5.06224 26.2228 5.13698 26.2663L13.2092 30.9814C13.6183 31.2236 14.1251 31.2236 14.5355 30.9814L24.3901 25.226V29.2108C24.3927 29.2518 24.3736 29.2914 24.342 29.317L16.1824 34.0822C12.5478 36.1988 7.90625 34.9406 5.8046 31.2698H5.80333ZM3.67887 13.4485C4.56565 11.8904 5.96548 10.6988 7.63262 10.08C7.63262 10.1505 7.62882 10.2747 7.62882 10.3619V19.7934C7.62629 20.2725 7.87965 20.7172 8.29137 20.9542L18.146 26.7084L14.7344 28.7008C14.7002 28.7239 14.6571 28.7277 14.6191 28.7111L6.45828 23.9421C2.83137 21.8177 1.58735 17.1245 3.6776 13.4497L3.67887 13.4485ZM31.7086 20.0458L21.8539 14.2902L25.2655 12.2992C25.2997 12.2761 25.3428 12.2722 25.3808 12.2889L33.5416 17.0539C37.1749 19.177 38.4201 23.8781 36.321 27.5528C35.433 29.1082 34.0344 30.2998 32.3686 30.9199V21.2066C32.3724 20.7274 32.1203 20.2841 31.7098 20.0458H31.7086ZM35.1037 14.8771C35.0441 14.8399 34.939 14.7759 34.8642 14.7323L26.792 10.0172C26.3829 9.77505 25.8761 9.77505 25.4657 10.0172L15.6111 15.7727V11.7879C15.6085 11.7469 15.6276 11.7072 15.6592 11.6816L23.8188 6.92037C27.4533 4.79986 32.1 6.06191 34.1953 9.73918C35.0809 11.2921 35.4013 13.1103 35.1011 14.8771H35.1037ZM13.7565 21.9792L10.3436 19.9869C10.3068 19.9689 10.2828 19.933 10.2778 19.892V10.3606C10.2803 6.117 13.6842 2.67806 17.8799 2.68062C19.6548 2.68062 21.3725 3.31101 22.7369 4.45904C22.6749 4.49235 22.5685 4.55257 22.4974 4.59613L14.4253 9.31123C14.0124 9.54826 13.759 9.99158 13.7615 10.4721L13.7565 21.9766V21.9792ZM15.6098 17.9381L19.9993 15.3743L24.3888 17.9368V23.0632L19.9993 25.6257L15.6098 23.0632V17.9381Z" fill="white"/>
</svg>
