<svg width="44" height="44" viewBox="0 0 44 44" fill="none" xmlns="http://www.w3.org/2000/svg">
<g clip-path="url(#clip0_1255_45571)">
<mask id="mask0_1255_45571" style="mask-type:luminance" maskUnits="userSpaceOnUse" x="0" y="0" width="44" height="44">
<path d="M44 0H0V44H44V0Z" fill="white"/>
</mask>
<g mask="url(#mask0_1255_45571)">
<mask id="mask1_1255_45571" style="mask-type:luminance" maskUnits="userSpaceOnUse" x="0" y="0" width="44" height="44">
<path d="M44 0H0V44H44V0Z" fill="white"/>
</mask>
<g mask="url(#mask1_1255_45571)">
<path d="M43.4072 44C43.4072 43.718 43.4778 43.5064 43.4778 43.3654C43.4778 42.1666 43.4778 40.8974 43.4778 39.6987C43.4778 26.7244 43.4778 13.6795 43.4778 0.705128C43.4778 0 43.4778 0 42.7727 0C37.5548 0 32.3367 0 27.1188 0C26.6252 0 26.4842 0.141043 26.4842 0.634632C26.4842 3.10258 26.4842 5.49999 26.4842 7.96794C26.4842 8.46153 26.6957 8.60257 27.1188 8.60257C29.5162 8.60257 31.9137 8.60257 34.2406 8.60257C34.9457 8.60257 34.9457 8.60257 34.9457 9.30769C34.9457 14.1026 34.9457 18.8975 34.9457 23.6922C34.9457 29.0512 34.9457 34.3397 34.9457 39.6987C34.9457 40.0512 34.9458 40.3334 35.3689 40.5449C37.4843 41.4615 39.5996 42.4487 41.6445 43.3654C42.2086 43.5064 42.7726 43.718 43.4072 44ZM30.7855 28.2756C30.7855 23.2692 30.7855 18.2628 30.7855 13.2564C30.7855 12.6217 30.7854 12.6218 30.1508 12.6218C24.8623 12.6218 19.6445 12.6218 14.356 12.6218C13.8624 12.6218 13.7213 12.7629 13.7213 13.2564C13.7213 15.7244 13.7213 18.1218 13.7213 20.5897C13.7213 21.0834 13.9329 21.2243 14.356 21.2243C16.6829 21.2243 19.0098 21.2243 21.3367 21.2243C22.2533 21.2243 22.2535 21.0834 22.2535 22.141C22.2535 27.9936 22.2535 33.7756 22.2535 39.6282C22.2535 40.1218 22.3944 40.4039 22.8879 40.5449C23.9457 40.968 24.9329 41.4615 25.9906 41.9551C27.4714 42.5897 28.8816 43.2243 30.3624 43.9295C30.715 44.0705 30.8559 44 30.8559 43.6475C30.8559 43.5064 30.8559 43.3654 30.8559 43.2243C30.7854 38.1475 30.7855 33.2115 30.7855 28.2756ZM18.0933 34.6924C18.0933 31.8013 18.0933 28.8397 18.0933 25.9487C18.0933 25.5256 17.9521 25.3141 17.4586 25.3141C12.2406 25.3141 6.9521 25.3141 1.73415 25.3141C1.09954 25.3141 1.09961 25.3141 1.09961 25.9487C1.09961 29.7564 1.09961 33.6346 1.09961 37.4422C1.09961 37.9358 1.24067 38.1475 1.66374 38.2885C3.21503 38.782 4.69579 39.3461 6.24708 39.9102C9.98425 41.1795 13.7213 42.5192 17.4586 43.7885C18.0931 44 18.0933 44 18.0933 43.2949C18.0933 40.4744 18.0933 37.5834 18.0933 34.6924Z" fill="white"/>
</g>
</g>
</g>
<defs>
<clipPath id="clip0_1255_45571">
<rect width="44" height="44" fill="white"/>
</clipPath>
</defs>
</svg>
