<svg width="64" height="70" viewBox="0 0 64 70" fill="none" xmlns="http://www.w3.org/2000/svg">
<path fill-rule="evenodd" clip-rule="evenodd" d="M40.4166 0.796332C39.7153 -0.0374476 38.5464 -0.237555 37.6113 0.296064L36.743 0.76298L27.292 6.13252L29.4961 10.0013L35.641 6.49938L34.1382 14.7038L38.513 15.5042L40.0492 7.26646L44.5911 12.6693L47.9974 9.80115L41.1179 1.59676H41.0845L40.4166 0.796332ZM27.1584 70C29.4294 70 31.2661 68.199 31.2661 65.9979C31.2661 63.7967 29.4294 61.9957 27.1584 61.9957C24.8875 61.9957 23.0507 63.7967 23.0507 65.9979C23.0174 68.199 24.8875 70 27.1584 70ZM32.6688 48.0216L31.1993 56.2593L26.7911 55.4589L28.2605 47.2545L22.1157 50.7897L19.8781 46.921L29.2624 41.5515L30.1307 41.0512C31.0658 40.5176 32.2346 40.7177 32.9359 41.5515L33.6038 42.3519L40.5836 50.5229L37.1772 53.4245L32.6688 48.0216ZM36.2421 28.3444L34.7727 36.5821L30.3644 35.7817L31.8339 27.6107L25.7224 31.1125L23.5183 27.2438L32.8691 21.9076V21.8409H32.9359L33.8042 21.3407C34.7393 20.807 35.9081 21.0071 36.6095 21.8409L37.2774 22.608L44.2237 30.8124L40.8173 33.7139L36.2421 28.3444ZM7.42149 60.8951H7.38809L6.48641 60.6283C5.51793 60.3615 4.88341 59.4277 4.9502 58.4271L5.7517 47.2879L9.99297 47.588L9.49203 54.3583L16.071 49.8893L18.4421 53.3911L11.9967 57.7601L18.5757 59.6611L17.4068 63.73L7.42149 60.8951ZM51.0699 65.4976L50.7693 66.4648C50.4687 67.3986 49.6005 68.0323 48.5986 67.9656L47.6635 67.8989L47.5967 67.9322L47.5633 67.8989L37.2106 67.1985L37.4778 62.9629L44.3573 63.4298L39.8489 57.1265L43.2886 54.6585L47.8973 61.1286L49.901 54.5918L53.9419 55.8258L51.0699 65.4976ZM63.226 42.552L63.7269 43.4525C64.2278 44.353 64.0275 45.4869 63.226 46.1539L62.4913 46.7876V46.8209H62.4579L54.4095 53.6246L51.6042 50.3228L56.8807 45.8538L48.9659 44.453L49.734 40.1841L57.7156 41.5848L54.3761 35.5816L58.1498 33.4805L63.226 42.552ZM55.044 23.942L47.8973 27.7774L45.8267 23.9754L52.8732 20.2067L46.4278 17.572L48.0642 13.5698L57.8826 17.5386L57.916 17.5053L57.9494 17.572L58.8511 17.9388C59.8196 18.339 60.3539 19.3396 60.1869 20.3401L60.02 21.3407L58.1832 31.5128L53.9085 30.7457L55.044 23.942ZM7.08753 32.8802L15.0357 34.2142L14.301 38.4832L6.28603 37.1158L9.69241 43.119L5.91868 45.2534L0.775716 36.2153L0.274778 35.3481C-0.22616 34.4477 -0.0257845 33.3137 0.74232 32.6467L1.47703 32.013V31.9797H1.51042L9.45864 25.1427L12.2973 28.4445L7.08753 32.8802ZM19.0766 14.4036L24.3532 20.2734L21.1138 23.175L15.7037 17.1718L14.468 24.0087L10.1933 23.2417L12.0635 13.1029L12.2639 12.069C12.4309 11.0685 13.2992 10.3348 14.301 10.3014L15.2361 10.2681L15.2695 10.2347L15.3029 10.2681L25.9228 9.8345L26.0898 14.1701L19.0766 14.4036Z" fill="white"/>
</svg>
