<svg width="44" height="44" viewBox="0 0 44 44" fill="none" xmlns="http://www.w3.org/2000/svg">
<g clip-path="url(#clip0_1255_45536)">
<mask id="mask0_1255_45536" style="mask-type:luminance" maskUnits="userSpaceOnUse" x="0" y="0" width="44" height="44">
<path d="M44 0H0V44H44V0Z" fill="white"/>
</mask>
<g mask="url(#mask0_1255_45536)">
<mask id="mask1_1255_45536" style="mask-type:luminance" maskUnits="userSpaceOnUse" x="0" y="0" width="44" height="44">
<path d="M44 0H0V44H44V0Z" fill="white"/>
</mask>
<g mask="url(#mask1_1255_45536)">
<mask id="mask2_1255_45536" style="mask-type:luminance" maskUnits="userSpaceOnUse" x="1" y="0" width="42" height="44">
<path d="M42.5573 0H1.09961V44H42.5573V0Z" fill="white"/>
</mask>
<g mask="url(#mask2_1255_45536)">
<path d="M32.2856 20.7932C32.5879 20.7536 32.8941 20.7536 33.1964 20.7932C33.3648 20.4178 33.3883 19.7712 33.2418 19.0658C33.023 18.0186 32.7267 17.3821 32.1139 17.4832C31.501 17.5842 31.4808 18.3419 31.698 19.3891C31.7905 19.894 31.9909 20.3729 32.2856 20.7932Z" fill="white"/>
<path d="M27.028 21.6221C27.4657 21.814 27.7335 21.9419 27.8395 21.8308C27.9068 21.7601 27.8866 21.6289 27.7822 21.4571C27.5005 21.0511 27.1077 20.7348 26.6508 20.5463C26.1632 20.3457 25.6322 20.2736 25.1089 20.3366C24.5854 20.3997 24.0867 20.596 23.6607 20.9065C23.3678 21.1221 23.0899 21.4116 23.1286 21.5985C23.1422 21.6575 23.186 21.7013 23.2886 21.7163C23.5311 21.7433 24.3746 21.3174 25.346 21.2568C25.928 21.2401 26.5053 21.3655 27.028 21.6221Z" fill="white"/>
<path d="M26.1509 22.1222C25.753 22.1658 25.3759 22.3231 25.065 22.5752C24.9205 22.6794 24.8212 22.8347 24.7872 23.0096C24.7864 23.028 24.7895 23.0463 24.7962 23.0635C24.8029 23.0807 24.8131 23.0962 24.8259 23.1093C24.8389 23.1225 24.8544 23.1327 24.8715 23.1396C24.8885 23.1464 24.9069 23.1497 24.9253 23.1493C25.0681 23.1281 25.2078 23.089 25.3411 23.0331C25.9269 22.8134 26.5594 22.7479 27.1779 22.8428C27.4642 22.8749 27.6006 22.8933 27.6628 22.7958C27.6781 22.7668 27.6847 22.7341 27.6817 22.7015C27.6788 22.6688 27.6663 22.6379 27.646 22.6122C27.513 22.3916 26.9372 22.0297 26.1509 22.1222Z" fill="white"/>
<path d="M30.5107 23.9691C30.8979 24.1594 31.324 24.0852 31.4637 23.8008C31.6034 23.5162 31.3996 23.1272 31.0141 22.9454C30.6285 22.7636 30.1992 22.8292 30.0612 23.1138C29.9231 23.3984 30.1235 23.7789 30.5107 23.9691Z" fill="white"/>
<path d="M33.0025 21.793C32.6876 21.793 32.4267 22.1297 32.4182 22.5641C32.4098 22.9985 32.6607 23.3502 32.9755 23.3553C33.2903 23.3604 33.5514 23.0186 33.5581 22.5842C33.5648 22.1498 33.3156 21.798 33.0025 21.793Z" fill="white"/>
<path d="M11.5391 29.5308C11.4436 29.5571 11.3452 29.5713 11.2461 29.5729C11.1412 29.5742 11.0376 29.5495 10.9444 29.5011C10.8513 29.4526 10.7716 29.3818 10.7124 29.2951C10.5693 29.0763 10.5777 28.7479 10.736 28.3725C10.7579 28.322 10.7815 28.2647 10.8101 28.2041C11.0626 27.6383 11.4835 26.6888 11.0104 25.788C10.857 25.4696 10.6271 25.1941 10.3412 24.9861C10.0554 24.7781 9.72245 24.6441 9.37223 24.5961C9.04076 24.555 8.70429 24.5934 8.39052 24.7078C8.07674 24.8223 7.79463 25.0096 7.56738 25.2543C6.87203 26.0221 6.76261 27.0659 6.89392 27.4346C6.94275 27.5694 7.02019 27.603 7.07744 27.6148C7.19529 27.6316 7.37039 27.5441 7.47983 27.2495C7.48824 27.2293 7.49835 27.1956 7.51182 27.1535C7.57928 26.9178 7.676 26.6917 7.79972 26.48C7.88754 26.3394 8.00292 26.2179 8.1389 26.123C8.2749 26.0282 8.42869 25.9617 8.59103 25.9278C8.75533 25.8919 8.92518 25.8891 9.09058 25.9197C9.25597 25.9504 9.41355 26.0139 9.55407 26.1063C9.79185 26.2622 9.96848 26.4956 10.0541 26.7668C10.1397 27.038 10.129 27.3303 10.0238 27.5946C9.85681 28.015 9.77387 28.464 9.77966 28.9162C9.85712 29.8523 10.4346 30.2295 10.9582 30.2632C11.4819 30.2968 11.8135 29.9988 11.9027 29.7917C11.9232 29.7564 11.9322 29.7156 11.9286 29.6749C11.9249 29.6343 11.9089 29.5957 11.8826 29.5644C11.7967 29.4718 11.6671 29.5022 11.5391 29.5308Z" fill="white"/>
<path d="M40.9363 27.8578C40.9178 27.7889 40.7932 27.3326 40.6215 26.7837C40.5231 26.4648 40.4067 26.1516 40.273 25.8459C40.9598 24.8156 40.9734 23.8945 40.8807 23.3727C40.7778 22.7003 40.4586 22.0797 39.9716 21.6049C39.4295 21.0341 38.3183 20.4515 36.7593 20.0121C36.5807 19.9633 35.9915 19.8016 35.9393 19.7848C35.9393 19.7512 35.8972 17.8554 35.8619 17.0422C35.8456 16.2258 35.7239 15.4148 35.4999 14.6296C35.1632 13.4056 34.5688 12.3331 33.8297 11.6479C35.8686 9.53487 37.1414 7.2081 37.138 5.20963C37.1296 1.36928 32.4155 0.207566 26.6035 2.61516L25.3712 3.13709C25.3712 3.13709 23.1453 0.948364 23.1117 0.923109C16.4849 -4.85679 -4.23548 18.1736 2.38961 23.7666L3.83753 24.994C3.44585 26.0441 3.30796 27.172 3.43514 28.2855C3.59004 29.8243 4.38303 31.2992 5.67101 32.4406C6.89332 33.5233 8.4995 34.2068 10.0585 34.2068C12.6362 40.1467 18.5256 43.7918 25.4318 43.9971C32.8397 44.216 39.059 40.741 41.6654 34.4964C41.8337 34.057 42.5577 32.0838 42.5577 30.3395C42.5577 28.5953 41.5677 27.8578 40.9363 27.8578ZM10.631 32.5333C10.404 32.571 10.174 32.5867 9.94406 32.5805C7.70651 32.5215 5.29051 30.5062 5.04974 28.1171C4.78372 25.4772 6.134 23.4451 8.52308 22.9635C8.85552 22.8978 9.19482 22.8735 9.53325 22.8911C10.8717 22.9652 12.8449 23.9922 13.2945 26.9083C13.6817 29.491 13.0537 32.1191 10.6276 32.5333H10.631ZM8.1291 21.3826C6.67691 21.6514 5.38613 22.4743 4.5295 23.6774C4.04966 23.2784 3.15734 22.4988 3.00077 22.2042C1.7212 19.7747 4.39649 15.0504 6.26533 12.3819C10.8852 5.79049 18.1214 0.801888 21.4719 1.706C22.0156 1.86089 23.8189 3.95196 23.8189 3.95196C21.5482 5.25276 19.3897 6.74004 17.3655 8.39843C13.1816 11.6175 10.0232 16.3031 8.1291 21.3826ZM16.6617 12.3566C18.3032 10.4592 20.3253 8.80924 22.1369 7.88324C22.1504 7.87613 22.1659 7.87361 22.181 7.87604C22.1961 7.87847 22.21 7.88573 22.2207 7.89673C22.2312 7.90773 22.2381 7.92188 22.2399 7.93706C22.2418 7.95223 22.2387 7.96761 22.2311 7.98089C22.0116 8.37173 21.8418 8.7886 21.7261 9.22173C21.7227 9.2363 21.7238 9.25156 21.7293 9.26547C21.7348 9.2794 21.7444 9.29133 21.7568 9.29972C21.7691 9.3081 21.7838 9.31253 21.7987 9.31243C21.8137 9.31233 21.8283 9.30771 21.8406 9.29917C22.9669 8.53143 24.9267 7.70814 26.6473 7.60208C26.6632 7.60145 26.679 7.60586 26.6922 7.61467C26.7055 7.62349 26.7156 7.63626 26.7212 7.65118C26.7268 7.66608 26.7276 7.68239 26.7234 7.69775C26.7192 7.71312 26.7102 7.72677 26.6979 7.73676C26.4137 7.9556 26.1594 8.2109 25.9419 8.49608C25.9339 8.50695 25.9291 8.51978 25.9279 8.53321C25.9267 8.54663 25.9291 8.56014 25.935 8.57226C25.9409 8.58439 25.95 8.59467 25.9612 8.60202C25.9726 8.60936 25.9856 8.61348 25.9992 8.61393C27.3998 8.66139 28.7723 9.02088 30.0163 9.6662C30.0921 9.70829 30.0382 9.85308 29.954 9.83457C27.5572 9.2944 25.0695 9.30131 22.6756 9.85477C20.125 10.476 18.1804 11.4357 16.7576 12.4594C16.7436 12.4659 16.7277 12.4677 16.7125 12.4646C16.6972 12.4617 16.6833 12.454 16.6727 12.4426C16.662 12.4312 16.6553 12.4168 16.6534 12.4014C16.6514 12.386 16.6543 12.3703 16.6617 12.3566ZM41.0121 30.9254C40.6904 32.875 39.8621 34.461 38.4698 35.9106C37.6004 36.8519 36.5659 37.6256 35.4174 38.1936C34.7772 38.5298 34.1098 38.8114 33.4223 39.0355C28.1744 40.7494 22.8003 38.8671 21.0694 34.8264C20.9288 34.5171 20.8122 34.1973 20.7209 33.8701C19.9835 31.2033 20.6098 28.0043 22.5729 25.989C22.7107 25.8691 22.7975 25.7011 22.8154 25.5192C22.7976 25.3553 22.7321 25.2001 22.6268 25.0731C21.9416 24.0798 19.5693 22.3793 20.0459 19.108C20.3826 16.7509 22.4467 15.096 24.366 15.1935L24.8525 15.2222C25.6844 15.271 26.4117 15.3771 27.0952 15.4057C28.2417 15.4562 29.2738 15.2896 30.4944 14.2726C30.9053 13.9359 31.2352 13.6312 31.7942 13.5369C31.9589 13.4938 32.1294 13.4773 32.2993 13.4881C32.5992 13.4981 32.8905 13.5907 33.1411 13.7557C34.121 14.4074 34.2591 15.9849 34.3096 17.1382C34.3382 17.7965 34.419 19.3909 34.446 19.8488C34.5082 20.8944 34.7827 21.0426 35.3399 21.2244C35.6531 21.3287 35.9426 21.4045 36.3703 21.5257C37.6667 21.8893 38.4345 22.2581 38.9193 22.7312C39.1694 22.9767 39.3325 23.2971 39.384 23.6437C39.5356 24.7582 38.5186 26.1338 35.8232 27.3847C32.8768 28.7536 29.3025 29.0986 26.8342 28.8243L25.9688 28.7266C23.9922 28.4606 22.8659 31.013 24.0512 32.7673C24.8156 33.8936 26.8966 34.6277 28.9792 34.6277C33.7523 34.6277 37.4226 32.5906 38.788 30.8295C38.8284 30.7772 38.8318 30.7705 38.8974 30.6746C38.9631 30.5786 38.9092 30.5163 38.8251 30.5735C37.7104 31.3379 32.7556 34.3667 27.4571 33.4559C27.0376 33.381 26.6256 33.2684 26.2264 33.1192C25.7584 32.9374 24.7819 32.4878 24.6623 31.4844C28.9387 32.8077 31.6308 31.5568 31.6308 31.5568C31.6557 31.5455 31.6764 31.5268 31.6902 31.5033C31.7041 31.4798 31.7105 31.4526 31.7083 31.4255C31.7066 31.4093 31.7018 31.3936 31.694 31.3793C31.6862 31.3651 31.6757 31.3524 31.663 31.3423C31.6503 31.3321 31.6357 31.3245 31.6201 31.32C31.6044 31.3155 31.5882 31.3141 31.572 31.316C31.572 31.316 28.0666 31.8345 24.7566 30.6223C25.1169 29.4438 26.0766 29.8731 27.5262 29.9909C29.779 30.1235 32.0381 29.8787 34.2102 29.267C35.7103 28.8377 37.6802 27.9892 39.2088 26.782C39.5394 27.5436 39.774 28.3433 39.9076 29.1626C40.1602 29.1251 40.4183 29.1718 40.6417 29.2956C40.9397 29.4792 41.1704 29.8816 41.0121 30.9254Z" fill="white"/>
</g>
</g>
</g>
</g>
<defs>
<clipPath id="clip0_1255_45536">
<rect width="44" height="44" fill="white"/>
</clipPath>
</defs>
</svg>
