<?xml version="1.0" encoding="UTF-8"?>
<svg xmlns="http://www.w3.org/2000/svg" version="1.1" viewBox="0 0 512 512">
  <defs>
    <style>
      .cls-1 {
        fill: #003087;
      }
    </style>
  </defs>
  <!-- Generator: Adobe Illustrator 28.6.0, SVG Export Plug-In . SVG Version: 1.2.0 Build 709)  -->
  <g>
    <g id="Layer_1">
      <path id="path5037" class="cls-1" d="M398.32,154.1v101.68l-1.3,1.07-1.3,1.07-1.24,1.13-1.19,1.13-1.14,1.13-1.14,1.18-1.08,1.18-1.08,1.18v-110.74h-113.68v92.57h-9.41v-92.57h-113.68v92.74h-9.41v-92.74H29.03v105.7L0,355.65h25.51l12.81-42.43h3.68l21.19,42.43h30.81l-20.54-42.43h46.59l-12.92,42.43h27.84l12.76-42.32h6.16v-.11h62.05l-12.32,42.32h28.11l11.95-42.32h12.65l.32,42.32h23.57l27.08-42.32h17.73l-9.19,42.32h27.68l9.03-42.32h16l-.11,2.41.06,2.46.11,2.36.22,2.36.16,1.13.16,1.13.22,1.13.22,1.13.27,1.13.27,1.07.32,1.07.32,1.07.38,1.07.38,1.02.43,1.02.43.96.49,1.02.49.96.54.91.54.96.59.91.65.86.65.91.7.8.7.86.7.8.81.8.81.75,1.03.86,1.03.86,1.08.8,1.14.75,1.14.75,1.14.7,1.19.59,1.24.64,1.19.54,1.24.54,1.24.48,1.3.48,1.3.43,1.3.37,1.3.37,1.3.32,2.59.59,2.65.43,2.59.37,2.59.32,2.54.21,2.49.11,2.43.11h2.32l3.14-.05,3.14-.05,3.19-.16,3.19-.16,3.19-.27,3.19-.27,3.19-.32,3.19-.37,3.24-.43,3.24-.48,3.24-.54,3.24-.54,3.24-.59,3.24-.64,3.24-.64,3.3-.75,9.62-38.41h31.57v-159.11h-113.68ZM39.57,309.25l.16-.59.38.59s-.54,0-.54,0ZM138.59,252.25l-1.62,5.41-15.14,49.82-.59,1.77h-49.73l-3.84-8.14,53.57-54.27h-34.43l-41.89,44.73,13.57-44.73h-25.41v-88.72h105.51v94.13h0ZM167.94,294.36h0l-.81.05-.76.05-.81.05h-2.97l-.92.05h-.86l-6.76-.05,3.14-11.46,1.46-5.68,3.57-13.34h2.32l1.14-.05h6.32l3.19.05,2.92.11,1.3.05,1.24.11,1.19.16,1.08.16.97.16.92.27.86.27.76.32.65.32.59.43.54.43.43.54.27.43.22.43.22.48.16.54.11.59.06.59v1.34l-.06.75-.05.75-.16.86-.16.86-.49,1.82-.59,2.04-.59,1.71-.65,1.66-.7,1.55-.76,1.45-.38.64-.38.64-.43.64-.49.59-.49.59-.49.54-.54.54-.54.48-.59.43-.59.48-.65.37-.7.43-.7.37-.76.32-.76.32-.81.27-.86.32-.92.21-.97.21-.97.21-1.08.16-1.08.16-1.14.11-1.19.11h0ZM244.81,309.25l11.08-39.11.43,39.11h-11.51ZM261.67,246.68h-26.38l-18.16,62.57h-28l1.3-.54,1.3-.54,1.24-.54,1.24-.59,1.19-.59,1.14-.7,1.14-.64,1.08-.7,1.08-.75,1.03-.75.97-.75.97-.86.92-.8.86-.91.86-.86.81-.96.81-.91.76-1.02.7-.96.7-1.07.65-1.07.59-1.07.59-1.13.54-1.18.54-1.18.49-1.18.43-1.23.43-1.29.32-1.29.38-1.29.27-1.39.27-1.34.38-2.14.32-2.04.22-1.93.16-1.82.06-1.82-.06-1.66-.05-1.66-.22-1.55-.22-1.45-.38-1.45-.38-1.34-.54-1.29-.59-1.23-.65-1.23-.76-1.13-.86-1.07-.7-.75-.7-.75-.76-.64-.81-.59-.86-.59-.86-.54-.92-.48-.92-.43-.97-.43-.97-.32-1.03-.32-1.03-.32-1.08-.27-1.08-.21-1.08-.21-1.14-.16-2.32-.32-2.32-.16-2.38-.16-2.43-.05h-30.65v-88.56h105.51v88.56h0ZM325.78,309.25h-15.84l24-37.5-8.16,37.5ZM384.75,248.45l-.06,21.7-1.35,1.88-1.24,1.93-1.24,1.93-1.14,1.93-1.08,1.93-1.08,1.98-.92,1.93-.92,1.93-.86,1.88-.76,1.93-.76,1.88-.65,1.82-.59,1.82-.54,1.77-.49,1.71-.43,1.71-.27,1.13-.27,1.18-.27,1.13-.22,1.18-.22,1.13-.16,1.13-.16,1.13-.11,1.18h-15.51l13.24-62.41-44.65-.05-39.95,62.47h-2.92v-151.13h105.57v90.32h0ZM445.62,334.81l-2.22.37-2.27.32-2.27.32-2.22.27-2.22.21-2.22.16-2.16.11h-3.57l-1.41-.05-1.35-.11-1.35-.16-1.3-.21-1.24-.21-1.24-.27-1.19-.32-1.14-.37-1.14-.37-1.08-.48-1.03-.48-1.03-.59-.97-.59-.92-.64-.86-.64-.86-.75-.76-.8-.76-.8-.7-.91-.65-.91-.59-1.02-.54-1.02-.54-1.07-.43-1.13-.38-1.23-.32-1.23-.32-1.29-.22-1.34-.16-1.39-.11-1.45-.06-1.5h49.19l-5.41,21.59h0ZM508,309.25h-26.59l4.38-17.46h-53.3l-4.38,17.46h-25.78v-3.59l.32-1.5.27-1.5.32-1.61.32-1.61.49-1.77.49-1.77.54-1.77.59-1.71.65-1.71.7-1.71.76-1.66.76-1.66.86-1.66.86-1.55.92-1.61,1.03-1.5,1.03-1.5,1.03-1.45,1.14-1.39,1.19-1.34,1.24-1.29,1.24-1.18,1.35-1.18,1.35-1.13,1.41-1.02,1.51-.96,1.51-.86,1.57-.8,1.62-.75,1.68-.64,1.73-.54,1.78-.43,1.84-.37,1.89-.27,1.95-.16,2-.05,1.57.05,1.57.11,1.57.21,1.51.32.76.21.7.21.7.21.65.32.65.27.65.37.59.37.59.37.54.48.54.48.49.48.49.59.43.54.38.64.32.7.32.7.27.75.22.8.16.8.16.91.06.91v1.98l-.11,1.07h31.78l.49-2.2.43-2.52.22-1.34.11-1.45.11-1.45v-1.5l-.05-1.55-.16-1.61-.16-.75-.11-.8-.22-.8-.22-.8-.27-.86-.27-.8-.32-.8-.38-.8-.38-.8-.49-.8-.49-.8-.54-.8-.65-.86-.7-.8-.7-.8-.76-.75-.81-.75-.86-.7-.86-.64-.92-.64-.97-.64-.97-.54-1.03-.54-1.08-.54-1.08-.48-1.14-.48-1.19-.43-1.19-.43-1.19-.37-1.3-.32-1.24-.32-1.35-.32-1.35-.27-1.35-.27-1.41-.21-1.46-.16-2.97-.32-3.03-.27-3.19-.11-3.24-.05-2.43.05-2.54.05-2.65.16-2.76.21-2.86.32-2.92.37-2.97.48-3.03.64-1.51.32-1.57.37-1.51.43-1.57.43-1.57.48-1.57.54-1.57.54-1.51.59-1.57.64-1.57.7-1.51.7-1.57.75-1.51.8-1.51.86-1.51.86-1.51.96v-94.82h105.68v151.13h0Z"/>
    </g>
  </g>
</svg>