<?xml version="1.0" encoding="utf-8"?>
<!DOCTYPE svg PUBLIC "-//W3C//DTD SVG 1.1//EN" "http://www.w3.org/Graphics/SVG/1.1/DTD/svg11.dtd" [
	<!ENTITY ns_extend "http://ns.adobe.com/Extensibility/1.0/">
	<!ENTITY ns_ai "http://ns.adobe.com/AdobeIllustrator/10.0/">
	<!ENTITY ns_graphs "http://ns.adobe.com/Graphs/1.0/">
	<!ENTITY ns_vars "http://ns.adobe.com/Variables/1.0/">
	<!ENTITY ns_imrep "http://ns.adobe.com/ImageReplacement/1.0/">
	<!ENTITY ns_sfw "http://ns.adobe.com/SaveForWeb/1.0/">
	<!ENTITY ns_custom "http://ns.adobe.com/GenericCustomNamespace/1.0/">
	<!ENTITY ns_adobe_xpath "http://ns.adobe.com/XPath/1.0/">
]>
<svg xmlns="http://www.w3.org/2000/svg" xml:space="preserve" width="800" height="800">
  <switch>
    <g>
      <path fill="#283C83" d="m0 400.017 400.006 399.984L800 400.017 400.006.001 0 400.017z"/>
      <path fill="#FFF" d="M641.97 335.693c-10.102-10.367-22.663-15.571-37.652-15.571h-5.184c-5.777 0-8.649 3.455-8.649 10.388v152.285c0 15 7.208 22.516 21.624 22.516h8.661v7.802h-98.658v-7.802h8.65c15.021 0 22.515-7.516 22.515-22.516V330.51c0-6.933-3.19-10.388-9.529-10.388h-4.325c-15.01 0-27.551 5.204-37.642 15.571-10.124 10.41-15.435 24.826-16.007 43.282h-7.802c-6.922-42.105-31.431-63.179-73.556-63.179-18.456 0-34.049 6.36-46.727 19.038-16.738 17.332-25.092 43.006-25.092 77.022 0 31.154 6.478 55.08 19.474 71.817 12.975 16.728 30.423 25.102 52.345 25.102 18.466 0 32.585-3.466 42.422-10.388 3.456-2.312 5.174-5.756 5.174-10.389v-46.727c0-14.999-7.209-22.505-21.614-22.505h-8.672v-7.77h95.191v7.77h-5.184c-15.01 0-22.493 7.506-22.493 22.505v48.443c-22.494 18.487-51.359 27.731-86.542 27.731-39.242 0-69.528-15.011-90.866-45.021v40.685H149.137v-7.802h9.508c13.854 0 20.767-7.791 20.767-23.353V342.616c0-15-6.912-22.494-20.767-22.494h-9.508v-8.65h101.245v8.65h-11.236c-15.011 0-22.516 6.933-22.516 20.776v150.578c0 9.212 4.897 13.834 14.713 13.834h16.441c32.883 0 51.338-15.275 55.397-45.868-7.494-14.999-11.247-30.847-11.247-47.585 0-31.176 10.526-56.394 31.59-75.739 21.03-19.314 47.437-28.992 79.174-28.992 14.417 0 28.547 2.321 42.401 6.943 16.717 5.767 25.081 8.649 25.081 8.649 4.601 0 7.208-3.742 7.791-11.247h186.938v67.504h-7.791c0-18.455-5.056-32.871-15.148-43.282z"/>
      <path fill="#FFC800" d="M489.823 225.916c-8.343 25.176-12.753 38.787-13.177 40.844H322.549c-5.311-17.597-9.826-31.313-13.505-41.141-8.184-24.964-12.286-40.312-12.286-46.048 0-14.734 5.725-26.183 17.205-34.377 9.01-6.551 19.006-9.826 30.073-9.826 16.398 0 33.783 6.158 52.206 18.423v50.956l3.689-1.854 3.031 1.854v-50.956c18.435-12.265 35.798-18.423 52.196-18.423 11.067 0 21.085 3.275 30.073 9.826 11.48 8.194 17.194 19.643 17.194 34.377.002 5.736-4.175 21.191-12.602 46.345z"/>
      <path fill="#283C83" d="M479.095 155.021c-6.964-5.321-14.734-7.981-23.32-7.981-13.516 0-27.021 4.494-40.493 13.505v49.736l12.868 6.138 28.229-13.525 25.176 12.285c6.127-15.551 9.212-27.412 9.212-35.606 0-9.828-3.902-18.001-11.672-24.552zm-135.059-7.982c-9.011 0-16.972 2.66-23.946 7.981-7.367 6.552-11.046 14.725-11.046 24.551 0 8.194 2.862 20.056 8.586 35.606l25.176-12.285 28.854 13.525 12.286-6.138v-49.736c-13.515-9.01-26.83-13.504-39.91-13.504z"/>
      <path fill="#283C83" d="m428.149 229.902-28.218-13.484-28.271 13.484-28.854-13.484-20.872 9.806c4.908 13.112 8.004 22.717 9.212 28.854h137.54c.806-6.138 3.699-15.742 8.565-28.854l-20.872-9.806-28.23 13.484z"/>
      <path fill="#FFC800" d="M406.663 140.891h-14.12V129.23h-10.42v-13.515h10.42v-11.651h14.12v11.651h10.42v13.515h-10.42v11.661z"/>
    </g>
  </switch>
</svg>