<svg xmlns="http://www.w3.org/2000/svg" viewBox="0 0 97 20" fill="none"><path d="M75.2952 3.54504C76.7608 3.54504 78.0981 3.86233 79.3069 4.49698C80.5157 5.13162 81.4447 6.00051 82.0949 7.10351L79.3749 8.76939C78.9139 8.07435 78.3339 7.53601 77.6351 7.15445C76.9364 6.77303 76.149 6.5821 75.2725 6.5821C73.8293 6.5821 72.6338 7.06576 71.6854 8.03265C70.7374 8.99983 70.2632 10.2465 70.2632 11.7724C70.2632 13.329 70.7393 14.583 71.6911 15.535C72.6432 16.4869 73.8369 16.9629 75.2725 16.9629C77.0404 16.9629 78.419 16.2375 79.409 14.787L81.9927 16.6456C81.2677 17.6958 80.3266 18.5174 79.1709 19.1104C78.0152 19.7037 76.7232 20 75.2952 20C74.0861 20 72.9642 19.794 71.9293 19.3823C70.8943 18.9707 70.014 18.4021 69.2886 17.6768C68.5633 16.9515 67.9947 16.0808 67.583 15.0646C67.1713 14.0485 66.9658 12.951 66.9658 11.7724C66.9658 10.5939 67.1713 9.49647 67.583 8.48033C67.9947 7.46426 68.5633 6.59339 69.2886 5.86808C70.014 5.14277 70.8943 4.57445 71.9293 4.16255C72.9642 3.751 74.0861 3.54504 75.2952 3.54504Z" fill="currentColor"/><path d="M87.7304 13.9031V19.7055H84.5684V3.83966H91.0391C92.9053 3.83966 94.339 4.28924 95.3401 5.18826C96.3412 6.08749 96.8418 7.31882 96.8418 8.88268C96.8418 10.4315 96.3412 11.6554 95.3401 12.5545C94.339 13.4538 92.9129 13.9031 91.0619 13.9031H87.7304ZM87.7304 6.75219V11.0132H90.9828C92.728 11.0132 93.6004 10.3031 93.6004 8.88268C93.6004 7.4624 92.728 6.75219 90.9828 6.75219H87.7304Z" fill="currentColor"/><path d="M9.82083 19.7054H0V3.8396H3.16187V16.7476H9.82083V19.7054Z" fill="currentColor"/><path d="M18.9666 3.54504C21.4842 3.54504 23.4914 4.35784 24.9884 5.98323L22.7088 8.2173C21.7411 7.10598 20.4636 6.55021 18.8759 6.55021C17.4166 6.55021 16.2165 7.03606 15.2752 8.00746C14.334 8.97901 13.8633 10.2359 13.8633 11.7782C13.8633 13.3584 14.3357 14.6323 15.2808 15.5999C16.2259 16.5677 17.4053 17.0515 18.8191 17.0515C20.1044 17.0515 21.1249 16.753 21.881 16.1556C22.6369 15.5584 23.1207 14.6889 23.3326 13.5473H19.2954V10.9049H26.5988C26.6289 11.1771 26.6441 11.4759 26.6441 11.8008C26.6441 13.381 26.3113 14.7966 25.6462 16.0478C24.9808 17.2992 24.0584 18.2706 22.8791 18.9624C21.6996 19.6542 20.3689 20 18.8871 20C18.01 20 17.1595 19.881 16.3355 19.6428C15.5114 19.4046 14.7536 19.0493 14.0617 18.5767C13.37 18.1043 12.7633 17.543 12.2417 16.8927C11.72 16.2426 11.3134 15.4771 11.0225 14.5962C10.7314 13.7155 10.5859 12.7761 10.5859 11.7781C10.5859 10.5987 10.7957 9.49689 11.2153 8.47235C11.6349 7.44796 12.2113 6.57667 12.9447 5.85835C13.678 5.14016 14.5644 4.57508 15.6041 4.16297C16.6436 3.75114 17.7645 3.54504 18.9666 3.54504Z" fill="currentColor"/><path d="M39.4895 6.7975H35.1963V19.7055H32.0344V6.7975H27.7412V3.8396H39.4895V6.7975H39.4895Z" fill="currentColor"/><path d="M45.5608 17.0361H45.4629V17.1343V19.6071V19.7053H45.5608H61.0133H61.1112V19.6071V17.1343V17.0361H61.0133H45.5608Z" fill="currentColor"/><path d="M53.2864 3.98681C54.3873 3.98681 55.2798 3.09433 55.2798 1.9934C55.2798 0.892477 54.3873 0 53.2864 0C52.1854 0 51.293 0.892477 51.293 1.9934C51.293 3.09433 52.1854 3.98681 53.2864 3.98681Z" fill="currentColor"/><path d="M61.8503 6.94173C60.9094 5.51707 59.2598 4.6999 57.3251 4.69983C57.1823 4.69983 57.038 4.7042 56.8921 4.71295C55.5559 4.79317 54.2468 5.24177 53.2868 5.9464C52.3267 5.24169 51.0176 4.7931 49.6814 4.71295C49.5356 4.7042 49.3912 4.69983 49.2487 4.69983C47.3137 4.69983 45.6642 5.517 44.7232 6.94173C43.1975 9.25214 44.185 11.7901 44.906 13.6432C45.0062 13.9008 45.0989 14.1389 45.1798 14.3625L45.439 15.0783L45.4625 15.1431H45.5314H61.0421H61.111L61.1345 15.0783L61.3937 14.3625C61.4746 14.1389 61.5673 13.9008 61.6654 13.6489C62.3885 11.7901 63.376 9.25214 61.8503 6.94173ZM47.0745 8.49465C47.5608 7.75827 48.3242 7.36908 49.2822 7.36901C49.3569 7.36901 49.4335 7.37127 49.5125 7.376C50.5815 7.44027 51.515 8.04952 51.8776 8.4375L51.8778 12.474H47.4747C46.8191 10.7763 46.4147 9.49358 47.0745 8.49465ZM57.2915 7.36901C58.263 7.36901 59.0057 7.74775 59.4989 8.49465C60.1587 9.49365 59.7544 10.7763 59.0987 12.474H54.6955L54.6953 8.438C55.0576 8.04987 55.9911 7.44027 57.061 7.376C57.14 7.37127 57.217 7.36901 57.2915 7.36901Z" fill="currentColor"/></svg>
