<svg width="355" height="81" viewBox="0 0 355 81" fill="none" xmlns="http://www.w3.org/2000/svg">
<g clip-path="url(#clip0_2003_180)">
<path d="M81.1752 40.4952C81.1752 62.8616 63.0073 80.9903 40.5924 80.9903C18.1776 80.9903 0 62.8616 0 40.4952C0 18.1287 18.1679 0 40.5828 0C62.9976 0 81.1655 18.1287 81.1655 40.4952" fill="#006EAB"/>
<path fill-rule="evenodd" clip-rule="evenodd" d="M41.5408 44.2988C42.2567 44.1153 42.8855 43.7292 43.3789 43.2176C43.7562 43.3141 44.0851 43.5555 44.2979 43.9223C44.7139 44.6366 44.4721 45.5537 43.7465 45.9688C43.0306 46.3838 42.1116 46.1425 41.6956 45.4185C41.4924 45.071 41.4441 44.6656 41.5408 44.2988ZM44.3173 41.5669C44.4043 41.2387 44.4527 40.8912 44.4527 40.534C44.4527 40.1768 44.4043 39.81 44.3076 39.4818C44.5785 39.2019 44.9654 39.0185 45.3911 39.0185C46.2231 39.0185 46.8906 39.6942 46.8906 40.5147C46.8906 41.3352 46.2134 42.0109 45.3911 42.0109C44.9654 42.0109 44.5881 41.8372 44.3173 41.5572M43.3595 37.8215C42.8758 37.3195 42.247 36.9527 41.5505 36.7693C41.4441 36.3928 41.4828 35.9777 41.6956 35.6205C42.1116 34.9062 43.0306 34.6552 43.7465 35.0703C44.4624 35.4854 44.7139 36.4024 44.2979 37.1168C44.0851 37.4836 43.7368 37.7346 43.3595 37.8215ZM37.7873 37.8021C37.4293 37.696 37.1004 37.4643 36.8972 37.1071C36.4813 36.3928 36.7328 35.4757 37.4487 35.0606C38.1646 34.6456 39.0836 34.8869 39.4996 35.6109C39.7027 35.968 39.7511 36.3735 39.6544 36.7403C38.9288 36.9141 38.2903 37.2905 37.7873 37.8021ZM36.8392 39.4142C36.7328 39.7618 36.6747 40.1382 36.6747 40.5244C36.6747 40.9105 36.7328 41.2676 36.8295 41.6055C36.5587 41.8565 36.2007 42.0013 35.8041 42.0013C34.9721 42.0013 34.2949 41.3256 34.2949 40.505C34.2949 39.6845 34.9721 39.0088 35.8041 39.0088C36.2007 39.0088 36.5683 39.1633 36.8295 39.4142M39.664 44.2988C38.9288 44.125 38.271 43.7389 37.7582 43.2176C37.41 43.3238 37.0907 43.5555 36.8972 43.903C36.4813 44.6173 36.7328 45.5344 37.4487 45.9494C38.1646 46.3645 39.0836 46.1232 39.4996 45.3992C39.7027 45.0517 39.7414 44.6559 39.664 44.2988Z" fill="#EFD61F"/>
<path d="M43.137 40.5337C43.137 41.9527 41.9858 43.0918 40.5734 43.0918C39.161 43.0918 38.0098 41.9431 38.0098 40.5337C38.0098 39.1243 39.161 37.9756 40.5734 37.9756C41.9858 37.9756 43.137 39.1243 43.137 40.5337Z" fill="#EFD621"/>
<path d="M43.8518 24.1908C43.8518 32.1451 42.3814 34.4908 40.5626 34.4908C38.7439 34.4908 37.2734 32.1451 37.2734 24.1908C37.2734 16.2366 40.5626 5.69531 40.5626 5.69531C40.5626 5.69531 43.8518 16.2366 43.8518 24.1908Z" fill="white"/>
<path d="M43.8518 56.7799C43.8518 48.8257 42.3814 46.48 40.5626 46.48C38.7439 46.48 37.2734 48.8257 37.2734 56.7799C37.2734 64.7342 40.5626 75.2755 40.5626 75.2755C40.5626 75.2755 43.8518 64.7342 43.8518 56.7799Z" fill="white"/>
<path d="M28.065 29.5002C34.9626 33.4773 36.2686 35.9195 35.3592 37.493C34.4499 39.0568 31.6831 39.163 24.7758 35.1859C17.8782 31.2088 10.3711 23.1001 10.3711 23.1001C10.3711 23.1001 21.1674 25.5327 28.065 29.5098" fill="white"/>
<path d="M56.3512 45.7949C49.4536 41.8178 46.6771 41.9143 45.7678 43.4878C44.8584 45.0516 46.1644 47.5036 53.062 51.4807C59.9596 55.4578 70.7559 57.8904 70.7559 57.8904C70.7559 57.8904 63.2488 49.7817 56.3512 45.8046" fill="white"/>
<path d="M24.7856 45.7949C31.6832 41.8178 34.4596 41.9143 35.369 43.4878C36.2784 45.0516 34.9724 47.5036 28.0748 51.4807C21.1771 55.4578 10.3809 57.8904 10.3809 57.8904C10.3809 57.8904 17.8879 49.7817 24.7856 45.8046" fill="white"/>
<path d="M53.062 29.5002C46.1644 33.4773 44.8584 35.9195 45.7678 37.493C46.6771 39.0568 49.4439 39.163 56.3512 35.1859C63.2488 31.2088 70.7559 23.1001 70.7559 23.1001C70.7559 23.1001 59.9596 25.5327 53.062 29.5098" fill="white"/>
<path d="M49.1538 29.2879C46.9288 33.1396 45.5647 33.8732 44.6844 33.3712C43.8137 32.8693 43.7653 31.3248 45.9904 27.4731C48.2154 23.6215 52.7526 19.4224 52.7526 19.4224C52.7526 19.4224 51.3692 25.4363 49.1441 29.2879" fill="white"/>
<path d="M35.1352 53.4981C37.3603 49.6464 37.3119 48.1019 36.4412 47.6C35.5706 47.098 34.2065 47.8316 31.9815 51.6833C29.7564 55.5349 28.373 61.5585 28.373 61.5585C28.373 61.5585 32.9102 57.3593 35.1352 53.5077" fill="white"/>
<path d="M54.5821 42.3005C50.1223 42.3005 48.8066 41.4896 48.8066 40.4857C48.8066 39.4818 50.1223 38.6709 54.5821 38.6709C59.0418 38.6709 64.9527 40.4857 64.9527 40.4857C64.9527 40.4857 59.0418 42.3005 54.5821 42.3005Z" fill="white"/>
<path d="M26.5542 42.3005C31.014 42.3005 32.3296 41.4896 32.3296 40.4857C32.3296 39.4818 31.014 38.6709 26.5542 38.6709C22.0945 38.6709 16.1836 40.4857 16.1836 40.4857C16.1836 40.4857 22.0945 42.3005 26.5542 42.3005Z" fill="white"/>
<path d="M45.9904 53.4981C43.7653 49.6464 43.8137 48.1019 44.6844 47.6C45.555 47.098 46.9191 47.8316 49.1441 51.6833C51.3692 55.5349 52.7526 61.5585 52.7526 61.5585C52.7526 61.5585 48.2154 57.3593 45.9904 53.5077" fill="white"/>
<path d="M31.9815 29.2879C34.2065 33.1396 35.5706 33.8732 36.4412 33.3712C37.3119 32.8693 37.3603 31.3248 35.1352 27.4731C32.9102 23.6215 28.373 19.4224 28.373 19.4224C28.373 19.4224 29.7564 25.4363 31.9815 29.2879Z" fill="white"/>
<path d="M279.146 53.5753C280.201 53.5753 281.101 53.6235 281.855 53.7008C282.61 53.7876 283.239 53.9131 283.761 54.0869C284.283 54.251 284.69 54.4634 284.999 54.7143C285.309 54.9653 285.541 55.2549 285.705 55.5831C285.87 55.9017 285.976 56.2589 286.025 56.6643C286.083 57.0601 286.102 57.4945 286.102 57.9578C286.102 58.4212 286.063 58.8652 285.976 59.2803C285.899 59.6857 285.754 60.0622 285.541 60.4001C285.328 60.7379 285.038 61.0468 284.67 61.3075C284.303 61.5778 283.838 61.7998 283.268 61.9832C282.697 62.1666 282.02 62.3114 281.217 62.3983C280.423 62.4948 279.495 62.5431 278.421 62.5431H275.857C274.899 62.5431 274.058 62.5045 273.332 62.4369C272.616 62.3597 271.988 62.2535 271.475 62.1087C270.952 61.9542 270.527 61.7708 270.179 61.5392C269.84 61.3075 269.569 61.0372 269.356 60.7283C269.153 60.4194 269.018 60.0622 268.94 59.6664C268.863 59.2707 268.824 58.8266 268.824 58.3536H270.749C270.749 58.9521 270.836 59.4251 271.01 59.763C271.185 60.1008 271.475 60.3615 271.871 60.5352C272.268 60.6993 272.8 60.8055 273.439 60.8538C274.096 60.8924 274.899 60.9117 275.857 60.9117H278.421C279.543 60.9117 280.472 60.8634 281.217 60.7572C281.962 60.6511 282.552 60.4773 282.987 60.2456C283.422 60.014 283.742 59.7147 283.916 59.3382C284.1 58.9618 284.187 58.4984 284.187 57.9578C284.187 57.4172 284.119 56.9732 283.993 56.6064C283.877 56.2492 283.625 55.9596 283.258 55.7472C282.9 55.5349 282.387 55.3804 281.729 55.3032C281.072 55.2067 280.201 55.1584 279.137 55.1584H276.496C275.325 55.1584 274.309 55.1198 273.477 55.0329C272.645 54.946 271.939 54.8205 271.378 54.6661C270.807 54.502 270.362 54.2993 270.014 54.0579C269.675 53.8069 269.414 53.5367 269.23 53.2181C269.056 52.9092 268.94 52.5617 268.892 52.1756C268.843 51.7894 268.814 51.3743 268.814 50.9303C268.814 50.4862 268.853 50.0325 268.931 49.6271C269.018 49.2313 269.172 48.8645 269.405 48.546C269.627 48.2177 269.946 47.9281 270.333 47.6772C270.73 47.4262 271.233 47.2138 271.842 47.0497C272.462 46.876 273.206 46.7505 274.077 46.6636C274.948 46.5767 275.964 46.5381 277.144 46.5381H279.069C280.027 46.5381 280.868 46.5767 281.594 46.6443C282.31 46.7118 282.939 46.818 283.451 46.9725C283.974 47.1173 284.399 47.3007 284.738 47.5324C285.086 47.7544 285.357 48.015 285.56 48.3336C285.763 48.6425 285.909 48.99 285.996 49.3858C286.073 49.7816 286.112 50.216 286.112 50.6986H284.187C284.187 50.1001 284.099 49.6271 283.925 49.2893C283.751 48.9514 283.471 48.7004 283.064 48.5266C282.668 48.3529 282.136 48.2467 281.478 48.2081C280.83 48.1598 280.017 48.1405 279.059 48.1405H277.134C275.857 48.1405 274.803 48.1888 273.971 48.2757C273.139 48.3625 272.491 48.5073 272.007 48.7294C271.523 48.9417 271.194 49.2313 271.01 49.5885C270.827 49.9457 270.73 50.3994 270.73 50.9399C270.73 51.2682 270.749 51.5674 270.798 51.828C270.846 52.0887 270.933 52.3204 271.078 52.5134C271.223 52.7065 271.426 52.8706 271.688 53.0057C271.949 53.1409 272.287 53.2471 272.723 53.3339C273.148 53.4208 273.671 53.4884 274.28 53.527C274.899 53.556 275.635 53.5753 276.496 53.5753H279.137H279.146Z" fill="#1A1818"/>
<path d="M288.355 56.4711C288.355 55.6698 288.394 54.9652 288.472 54.357C288.549 53.7489 288.694 53.2083 288.888 52.7642C289.091 52.3105 289.371 51.9341 289.71 51.6348C290.058 51.3259 290.493 51.0846 291.006 50.8915C291.538 50.7081 292.157 50.5729 292.873 50.4957C293.599 50.4185 294.431 50.3799 295.398 50.3799C296.675 50.3799 297.73 50.4571 298.562 50.6212C299.394 50.7757 300.042 51.017 300.525 51.3356C301.009 51.6541 301.338 52.0692 301.532 52.5615C301.715 53.0538 301.812 53.6427 301.812 54.328H299.887C299.887 54.0867 299.887 53.855 299.868 53.6427C299.858 53.4303 299.8 53.2372 299.723 53.0635C299.645 52.8897 299.51 52.7353 299.336 52.6098C299.152 52.465 298.9 52.3491 298.562 52.2623C298.223 52.1657 297.807 52.0982 297.294 52.0499C296.791 52.0016 296.162 51.9823 295.408 51.9823C294.557 51.9823 293.831 52.0113 293.251 52.0692C292.67 52.1271 292.186 52.2333 291.809 52.3684C291.432 52.5036 291.132 52.687 290.929 52.9187C290.726 53.1504 290.571 53.4206 290.484 53.7585C290.387 54.0964 290.339 54.4825 290.31 54.9362C290.3 55.3802 290.29 55.9015 290.29 56.4807C290.29 57.0599 290.29 57.5619 290.31 58.0059C290.329 58.45 290.387 58.8361 290.484 59.1643C290.58 59.4925 290.726 59.7628 290.929 59.9945C291.132 60.2165 291.432 60.3999 291.809 60.5447C292.186 60.6895 292.67 60.786 293.251 60.844C293.841 60.9019 294.557 60.9308 295.408 60.9308C296.153 60.9308 296.782 60.9019 297.294 60.8536C297.807 60.7957 298.233 60.7281 298.562 60.6219C298.9 60.5254 299.152 60.3999 299.336 60.2551C299.519 60.1103 299.645 59.9462 299.723 59.7531C299.81 59.5601 299.858 59.3477 299.868 59.1257C299.877 58.894 299.887 58.643 299.887 58.3727H301.812C301.812 59.0678 301.715 59.6759 301.532 60.1875C301.348 60.6992 301.009 61.1239 300.525 61.4521C300.042 61.7803 299.394 62.0216 298.562 62.1857C297.739 62.3402 296.685 62.4271 295.398 62.4271C294.44 62.4271 293.599 62.3885 292.873 62.3112C292.157 62.234 291.529 62.0989 291.006 61.9251C290.484 61.7417 290.048 61.5004 289.71 61.1915C289.371 60.8922 289.091 60.5254 288.888 60.0814C288.684 59.647 288.549 59.1257 288.472 58.5368C288.394 57.9383 288.355 57.253 288.355 56.4807" fill="#1A1818"/>
<path d="M315.916 62.205V55.7181C315.916 55.0231 315.858 54.4439 315.752 53.9709C315.645 53.4882 315.432 53.1021 315.113 52.8125C314.794 52.5229 314.339 52.3105 313.749 52.185C313.159 52.0499 312.385 51.9823 311.427 51.9823C310.383 51.9823 309.531 52.0595 308.864 52.214C308.206 52.3588 307.684 52.5711 307.306 52.8414C306.929 53.1117 306.668 53.4303 306.513 53.8067C306.378 54.1832 306.3 54.608 306.3 55.0713V62.1954H304.375V46.8564H306.3V52.5036C306.436 52.1947 306.619 51.9244 306.871 51.6927C307.122 51.4707 307.403 51.2776 307.722 51.1135C308.051 50.9494 308.399 50.8239 308.777 50.737C309.154 50.6405 309.531 50.5633 309.909 50.5054C310.296 50.4571 310.673 50.4185 311.04 50.3992C311.418 50.3799 311.756 50.3702 312.076 50.3702C312.927 50.3702 313.662 50.4185 314.281 50.5247C314.9 50.6212 315.423 50.7756 315.848 50.988C316.284 51.1907 316.632 51.4417 316.893 51.741C317.154 52.0402 317.358 52.3877 317.493 52.7932C317.638 53.1889 317.735 53.633 317.783 54.1253C317.832 54.608 317.851 55.1389 317.851 55.7084V62.1954H315.916V62.205Z" fill="#1A1818"/>
<path d="M322.021 56.3747C322.021 57.0119 322.04 57.5717 322.089 58.0447C322.137 58.5178 322.224 58.9232 322.35 59.2611C322.485 59.5989 322.669 59.8789 322.901 60.0912C323.133 60.3036 323.443 60.4774 323.82 60.6028C324.198 60.7283 324.662 60.8152 325.204 60.8635C325.755 60.9117 326.394 60.9311 327.148 60.9311C327.787 60.9311 328.357 60.9214 328.86 60.8924C329.364 60.8635 329.809 60.7863 330.176 60.6801C330.553 60.5739 330.882 60.4291 331.144 60.236C331.405 60.0333 331.627 59.763 331.782 59.4252C331.947 59.0873 332.072 58.6722 332.14 58.1799C332.217 57.6779 332.256 57.0794 332.256 56.3844C332.256 55.6894 332.217 55.1198 332.14 54.6372C332.063 54.1545 331.947 53.7491 331.782 53.4209C331.618 53.0927 331.405 52.8417 331.144 52.6486C330.873 52.4555 330.553 52.3107 330.176 52.2239C329.799 52.1273 329.364 52.0598 328.86 52.0308C328.357 52.0018 327.787 51.9922 327.148 51.9922C326.51 51.9922 325.929 52.0018 325.426 52.0308C324.923 52.0598 324.488 52.1177 324.101 52.2239C323.724 52.3204 323.404 52.4555 323.143 52.6486C322.872 52.832 322.659 53.0927 322.495 53.4209C322.33 53.7491 322.214 54.1545 322.137 54.6372C322.06 55.1198 322.031 55.699 322.031 56.3844M320.105 56.3844C320.105 55.2067 320.231 54.2317 320.483 53.4595C320.734 52.6872 321.141 52.0791 321.702 51.6254C322.263 51.1717 322.988 50.8531 323.878 50.6794C324.768 50.4959 325.862 50.3994 327.139 50.3994C328.415 50.3994 329.509 50.4959 330.399 50.6794C331.289 50.8628 332.024 51.1717 332.585 51.6254C333.146 52.0791 333.552 52.6872 333.804 53.4595C334.055 54.2317 334.181 55.2067 334.181 56.3844C334.181 57.5621 334.055 58.5371 333.804 59.319C333.552 60.1009 333.146 60.7187 332.585 61.1724C332.024 61.6357 331.298 61.9543 330.399 62.1474C329.509 62.3308 328.415 62.4273 327.139 62.4273C325.862 62.4273 324.768 62.3308 323.878 62.1474C322.988 61.9543 322.253 61.6261 321.702 61.1724C321.141 60.709 320.734 60.0912 320.483 59.319C320.231 58.5371 320.105 57.5621 320.105 56.3844Z" fill="#1A1818"/>
<path d="M338.031 56.3747C338.031 57.0119 338.05 57.5717 338.098 58.0447C338.147 58.5178 338.234 58.9232 338.36 59.2611C338.495 59.5989 338.679 59.8789 338.911 60.0912C339.143 60.3036 339.453 60.4774 339.83 60.6028C340.207 60.7283 340.672 60.8152 341.213 60.8635C341.765 60.9117 342.403 60.9311 343.158 60.9311C343.796 60.9311 344.367 60.9214 344.87 60.8924C345.373 60.8635 345.818 60.7863 346.186 60.6801C346.563 60.5739 346.892 60.4291 347.153 60.236C347.415 60.0333 347.637 59.763 347.792 59.4252C347.956 59.0873 348.082 58.6722 348.15 58.1799C348.227 57.6779 348.266 57.0794 348.266 56.3844C348.266 55.6894 348.227 55.1198 348.15 54.6372C348.072 54.1545 347.956 53.7491 347.792 53.4209C347.627 53.0927 347.415 52.8417 347.153 52.6486C346.882 52.4555 346.563 52.3107 346.186 52.2239C345.809 52.1273 345.373 52.0598 344.87 52.0308C344.367 52.0018 343.796 51.9922 343.158 51.9922C342.519 51.9922 341.939 52.0018 341.436 52.0308C340.933 52.0598 340.498 52.1177 340.111 52.2239C339.733 52.3204 339.414 52.4555 339.153 52.6486C338.882 52.832 338.669 53.0927 338.505 53.4209C338.34 53.7491 338.224 54.1545 338.147 54.6372C338.069 55.1198 338.04 55.699 338.04 56.3844M336.115 56.3844C336.115 55.2067 336.241 54.2317 336.493 53.4595C336.744 52.6872 337.15 52.0791 337.711 51.6254C338.273 51.1717 338.998 50.8531 339.888 50.6794C340.778 50.4959 341.871 50.3994 343.148 50.3994C344.425 50.3994 345.518 50.4959 346.408 50.6794C347.298 50.8628 348.034 51.1717 348.595 51.6254C349.156 52.0791 349.562 52.6872 349.814 53.4595C350.065 54.2317 350.191 55.2067 350.191 56.3844C350.191 57.5621 350.065 58.5371 349.814 59.319C349.562 60.1009 349.156 60.7187 348.595 61.1724C348.034 61.6357 347.308 61.9543 346.408 62.1474C345.518 62.3308 344.425 62.4273 343.148 62.4273C341.871 62.4273 340.778 62.3308 339.888 62.1474C338.998 61.9543 338.263 61.6261 337.711 61.1724C337.15 60.709 336.744 60.0912 336.493 59.319C336.241 58.5371 336.115 57.5621 336.115 56.3844Z" fill="#1A1818"/>
<path d="M354.999 46.8662H353.074V62.2051H354.999V46.8662Z" fill="#1A1818"/>
<path d="M92.5912 46.7695H90.666V62.1085H92.5912V46.7695Z" fill="#1A1818"/>
<path d="M107.315 62.1089V55.7184C107.315 55.0041 107.257 54.4056 107.15 53.9229C107.044 53.4306 106.831 53.0349 106.512 52.7356C106.192 52.4364 105.738 52.224 105.148 52.0888C104.558 51.9537 103.784 51.8861 102.826 51.8861C101.781 51.8861 100.93 51.9633 100.262 52.1178C99.6044 52.2723 99.082 52.4846 98.7047 52.7646C98.3274 53.0445 98.0662 53.3824 97.9114 53.7685C97.776 54.1643 97.6986 54.5987 97.6986 55.0717V62.0992H95.7734V50.5926H97.6986V52.5136C97.8437 52.1854 98.0372 51.9054 98.2984 51.6738C98.5596 51.4324 98.8498 51.2297 99.1787 51.0656C99.5076 50.9015 99.8559 50.7664 100.243 50.6698C100.62 50.5636 101.007 50.4864 101.384 50.4285C101.762 50.3706 102.129 50.332 102.487 50.3126C102.845 50.2933 103.174 50.2837 103.464 50.2837C104.316 50.2837 105.051 50.332 105.67 50.4381C106.289 50.5443 106.812 50.6988 107.237 50.9112C107.673 51.1139 108.021 51.3745 108.272 51.6834C108.534 51.9923 108.737 52.3495 108.872 52.7549C109.017 53.1507 109.114 53.6044 109.162 54.1064C109.211 54.5987 109.23 55.1393 109.23 55.7281V62.1185H107.295L107.315 62.1089Z" fill="#1A1818"/>
<path d="M123.026 57.0023C123.026 57.9773 122.949 58.7978 122.785 59.4639C122.62 60.1106 122.349 60.6416 121.972 61.0277C121.595 61.4235 121.101 61.7034 120.492 61.8675C119.882 62.0316 119.118 62.1185 118.218 62.1185C117.319 62.1185 116.613 62.0509 116.013 61.9158C115.423 61.7806 114.939 61.5586 114.571 61.2401C114.204 60.9215 113.942 60.4968 113.778 59.9658C113.614 59.4349 113.536 58.7689 113.536 57.9676V52.195H111.166V50.6216H113.536V47.4746H115.461V50.6216H122.698V52.195H115.461V57.9676C115.461 58.6047 115.51 59.0971 115.606 59.4446C115.703 59.7921 115.868 60.0431 116.08 60.2072C116.293 60.3713 116.574 60.4582 116.922 60.4871C117.28 60.5161 117.706 60.5257 118.218 60.5257C118.615 60.5257 118.973 60.5257 119.292 60.5064C119.611 60.4968 119.892 60.4485 120.124 60.3906C120.366 60.3134 120.569 60.2072 120.734 60.072C120.898 59.9272 121.034 59.7245 121.13 59.4639C121.237 59.2032 121.314 58.875 121.362 58.4889C121.411 58.0931 121.43 57.6008 121.43 57.0216H123.036L123.026 57.0023Z" fill="#1A1818"/>
<path d="M131.664 51.886C131.025 51.886 130.445 51.8957 129.942 51.9246C129.439 51.9536 129.003 52.0115 128.616 52.108C128.239 52.1949 127.92 52.3204 127.659 52.4942C127.388 52.6583 127.175 52.861 127.011 53.0927C126.856 53.3147 126.73 53.6429 126.653 54.058C126.575 54.4731 126.546 54.9654 126.546 55.5542H136.153C136.153 54.7723 136.066 54.1642 135.901 53.7298C135.737 53.2857 135.475 52.9189 135.108 52.6293C134.75 52.3397 134.285 52.1466 133.715 52.0405C133.144 51.9343 132.467 51.8764 131.664 51.8764M131.664 62.3211C130.387 62.3211 129.294 62.2342 128.404 62.0605C127.514 61.8771 126.778 61.5778 126.217 61.1434C125.656 60.709 125.25 60.1298 124.998 59.4059C124.747 58.6819 124.621 57.7648 124.621 56.6643C124.621 55.4094 124.747 54.3669 124.998 53.5464C125.25 52.7258 125.656 52.0694 126.217 51.5771C126.778 51.0944 127.504 50.7566 128.404 50.5635C129.303 50.3705 130.387 50.2739 131.664 50.2739C132.573 50.2739 133.366 50.3415 134.034 50.4766C134.711 50.6118 135.282 50.8048 135.756 51.0558C136.24 51.3068 136.627 51.6157 136.917 51.9729C137.217 52.3301 137.449 52.7065 137.613 53.112C137.788 53.5077 137.904 53.9711 137.962 54.502C138.029 55.033 138.058 55.5928 138.058 56.1913L137.894 56.8284H126.527C126.527 57.7069 126.614 58.4309 126.788 58.9908C126.962 59.5506 127.252 59.9561 127.649 60.2167C128.046 60.4774 128.578 60.6415 129.226 60.7187C129.884 60.7863 130.687 60.8152 131.644 60.8152C132.525 60.8152 133.25 60.7959 133.821 60.7476C134.402 60.6994 134.866 60.5932 135.205 60.4581C135.543 60.3133 135.785 60.1202 135.92 59.8789C136.066 59.6279 136.133 59.2997 136.133 58.9039H138.058C138.058 59.5217 137.952 60.0526 137.729 60.4967C137.517 60.9311 137.159 61.2786 136.656 61.5585C136.153 61.8192 135.495 62.0122 134.672 62.1377C133.86 62.2632 132.854 62.3308 131.654 62.3308" fill="#1A1818"/>
<path d="M150.558 54.3477C150.558 53.865 150.52 53.4692 150.452 53.1603C150.384 52.8418 150.22 52.5908 149.959 52.3977C149.697 52.2047 149.31 52.0695 148.798 52.002C148.295 51.9247 147.598 51.8861 146.718 51.8861C145.837 51.8861 145.16 51.9633 144.619 52.1178C144.077 52.2626 143.651 52.475 143.351 52.7453C143.042 53.0155 142.839 53.3438 142.722 53.7202C142.616 54.0967 142.558 54.5214 142.558 54.9848V62.1089H140.633V50.6022H142.558V52.4267C142.626 52.224 142.751 51.9923 142.926 51.751C143.109 51.5 143.38 51.2683 143.748 51.0559C144.115 50.8339 144.59 50.6505 145.17 50.5057C145.76 50.3609 146.486 50.2837 147.356 50.2837C148.353 50.2837 149.175 50.3706 149.794 50.554C150.423 50.7277 150.907 50.9884 151.255 51.3359C151.613 51.6738 151.845 52.0985 151.961 52.6005C152.087 53.1024 152.155 53.6913 152.155 54.3477H150.558Z" fill="#1A1818"/>
<path d="M164.973 62.1089V55.7184C164.973 55.0041 164.915 54.4056 164.808 53.9229C164.702 53.4306 164.489 53.0349 164.17 52.7356C163.851 52.4364 163.396 52.224 162.806 52.0888C162.216 51.9537 161.442 51.8861 160.484 51.8861C159.439 51.8861 158.588 51.9633 157.92 52.1178C157.263 52.2723 156.74 52.4846 156.363 52.7646C155.986 53.0445 155.724 53.3824 155.57 53.7685C155.434 54.1643 155.357 54.5987 155.357 55.0717V62.0992H153.432V50.5926H155.357V52.5136C155.502 52.1854 155.695 51.9054 155.957 51.6738C156.218 51.4324 156.508 51.2297 156.837 51.0656C157.166 50.9015 157.514 50.7664 157.901 50.6698C158.278 50.5636 158.665 50.4864 159.043 50.4285C159.42 50.3706 159.787 50.332 160.145 50.3126C160.503 50.2933 160.832 50.2837 161.123 50.2837C161.974 50.2837 162.709 50.332 163.328 50.4381C163.947 50.5443 164.47 50.6988 164.895 50.9112C165.331 51.1139 165.679 51.3745 165.931 51.6834C166.192 51.9923 166.395 52.3495 166.53 52.7549C166.675 53.1507 166.772 53.6044 166.821 54.1064C166.869 54.5987 166.888 55.1393 166.888 55.7281V62.1185H164.953L164.973 62.1089Z" fill="#1A1818"/>
<path d="M176.484 60.8343C177.335 60.8343 178.041 60.7957 178.603 60.7184C179.173 60.6412 179.638 60.5157 179.986 60.3613C180.334 60.1972 180.576 60.0041 180.721 59.7628C180.866 59.5214 180.944 59.2415 180.944 58.9229C180.944 58.6044 180.857 58.3341 180.683 58.1121C180.518 57.89 180.237 57.7066 179.831 57.5618C179.435 57.417 178.912 57.3205 178.264 57.2626C177.606 57.195 176.803 57.166 175.845 57.166C174.888 57.166 174.104 57.1854 173.514 57.2143C172.924 57.2433 172.469 57.3205 172.15 57.446C171.831 57.5618 171.618 57.7452 171.502 57.9769C171.395 58.2086 171.347 58.5272 171.347 58.9229C171.347 59.3187 171.405 59.6469 171.521 59.8979C171.637 60.1489 171.879 60.342 172.247 60.4771C172.605 60.6122 173.127 60.7088 173.795 60.7667C174.472 60.815 175.371 60.8343 176.494 60.8343M180.953 60.535C180.934 60.6122 180.779 60.815 180.499 61.1335C180.296 61.3748 180.034 61.5872 179.696 61.7706C179.367 61.954 178.912 62.0892 178.351 62.1857C177.8 62.2919 177.064 62.3498 176.165 62.3498C174.955 62.3498 173.93 62.2822 173.069 62.1568C172.218 62.0409 171.521 61.8479 170.979 61.5969C170.438 61.3362 170.041 61.008 169.789 60.6122C169.538 60.2165 169.422 59.7338 169.422 59.1836C169.422 58.6044 169.49 58.1121 169.625 57.7163C169.76 57.3108 169.964 56.973 170.225 56.7027C170.496 56.4324 170.815 56.22 171.183 56.0656C171.56 55.9111 171.976 55.7953 172.45 55.7181C172.934 55.6408 173.456 55.5829 174.017 55.5733C174.588 55.554 175.188 55.5443 175.826 55.5443C176.745 55.5443 177.509 55.5829 178.119 55.6601C178.728 55.7374 179.231 55.8339 179.618 55.9497C180.015 56.0656 180.305 56.1911 180.508 56.3166C180.712 56.4517 180.847 56.5772 180.944 56.6834C180.944 55.9401 180.915 55.303 180.847 54.7817C180.789 54.2604 180.682 53.8164 180.537 53.4592C180.402 53.1117 180.218 52.8318 179.986 52.6194C179.763 52.407 179.483 52.2429 179.144 52.1367C178.815 52.0305 178.438 51.963 177.993 51.934C177.548 51.8954 177.045 51.8857 176.484 51.8857C175.604 51.8857 174.868 51.9051 174.288 51.9533C173.707 51.9919 173.253 52.0788 172.905 52.2043C172.566 52.3298 172.324 52.5036 172.179 52.7352C172.034 52.9573 171.966 53.2468 171.966 53.604H170.041C170.041 52.9959 170.147 52.4842 170.36 52.0692C170.583 51.6541 170.941 51.3066 171.444 51.0556C171.947 50.7853 172.614 50.6019 173.437 50.4764C174.259 50.3605 175.265 50.293 176.465 50.293C177.664 50.293 178.632 50.3895 179.444 50.5826C180.257 50.7756 180.915 51.1135 181.418 51.5962C181.921 52.0788 182.288 52.7352 182.511 53.5654C182.743 54.3859 182.849 55.4188 182.849 56.6834V62.1181H180.924V60.5447L180.953 60.535Z" fill="#1A1818"/>
<path d="M196.655 57.0023C196.655 57.9773 196.578 58.7978 196.413 59.4639C196.249 60.1106 195.978 60.6416 195.601 61.0277C195.224 61.4235 194.73 61.7034 194.121 61.8675C193.511 62.0316 192.747 62.1185 191.847 62.1185C190.948 62.1185 190.241 62.0509 189.642 61.9158C189.052 61.7806 188.568 61.5586 188.2 61.2401C187.833 60.9215 187.571 60.4968 187.407 59.9658C187.242 59.4349 187.165 58.7689 187.165 57.9676V52.195H184.795V50.6216H187.165V47.4746H189.09V50.6216H196.326V52.195H189.09V57.9676C189.09 58.6047 189.139 59.0971 189.235 59.4446C189.332 59.7921 189.497 60.0431 189.709 60.2072C189.922 60.3713 190.203 60.4582 190.551 60.4871C190.909 60.5161 191.335 60.5257 191.847 60.5257C192.244 60.5257 192.602 60.5257 192.921 60.5064C193.24 60.4968 193.521 60.4485 193.753 60.3906C193.995 60.3134 194.198 60.2072 194.363 60.072C194.527 59.9272 194.662 59.7245 194.759 59.4639C194.866 59.2032 194.943 58.875 194.991 58.4889C195.04 58.0931 195.059 57.6008 195.059 57.0216H196.665L196.655 57.0023Z" fill="#1A1818"/>
<path d="M201.773 48.6905H199.848V46.7695H201.773V48.6905ZM199.848 50.6115H201.773V62.1181H199.848V50.6115Z" fill="#1A1818"/>
<path d="M206.581 56.2781C206.581 56.9152 206.601 57.4751 206.649 57.9481C206.698 58.4211 206.785 58.8265 206.91 59.1644C207.046 59.5022 207.23 59.7822 207.462 59.9945C207.694 60.2069 208.004 60.3807 208.381 60.5062C208.758 60.6317 209.223 60.7185 209.764 60.7668C210.316 60.8151 210.954 60.8344 211.709 60.8344C212.347 60.8344 212.918 60.8247 213.421 60.7958C213.924 60.7668 214.369 60.6896 214.737 60.5834C215.114 60.4772 215.443 60.3324 215.704 60.1393C215.965 59.9366 216.188 59.6663 216.343 59.3285C216.507 58.9906 216.633 58.5755 216.701 58.0832C216.778 57.5812 216.817 56.9827 216.817 56.2877C216.817 55.5927 216.778 55.0231 216.701 54.5405C216.623 54.0578 216.507 53.6524 216.343 53.3242C216.178 52.996 215.965 52.745 215.704 52.5519C215.433 52.3589 215.114 52.2141 214.737 52.1272C214.359 52.0307 213.924 51.9631 213.421 51.9341C212.918 51.9052 212.347 51.8955 211.709 51.8955C211.07 51.8955 210.49 51.9052 209.987 51.9341C209.484 51.9631 209.048 52.021 208.661 52.1272C208.284 52.2237 207.965 52.3589 207.704 52.5519C207.433 52.7353 207.22 52.996 207.056 53.3242C206.891 53.6524 206.775 54.0578 206.698 54.5405C206.62 55.0231 206.591 55.6023 206.591 56.2877M204.666 56.2877C204.666 55.11 204.792 54.1351 205.043 53.3628C205.295 52.5905 205.701 51.9824 206.262 51.5287C206.823 51.075 207.549 50.7564 208.439 50.5827C209.329 50.3993 210.422 50.3027 211.699 50.3027C212.976 50.3027 214.069 50.3993 214.959 50.5827C215.849 50.7661 216.584 51.075 217.146 51.5287C217.707 51.9824 218.113 52.5905 218.365 53.3628C218.616 54.1351 218.742 55.11 218.742 56.2877C218.742 57.4654 218.616 58.4404 218.365 59.2223C218.113 60.0042 217.707 60.622 217.146 61.0757C216.584 61.5391 215.859 61.8576 214.959 62.0507C214.069 62.2341 212.976 62.3306 211.699 62.3306C210.422 62.3306 209.329 62.2341 208.439 62.0507C207.549 61.8576 206.814 61.5294 206.262 61.0757C205.701 60.6124 205.295 59.9945 205.043 59.2223C204.792 58.4404 204.666 57.4654 204.666 56.2877Z" fill="#1A1818"/>
<path d="M232.516 62.1089V55.7184C232.516 55.0041 232.458 54.4056 232.351 53.9229C232.245 53.4306 232.032 53.0349 231.713 52.7356C231.394 52.4364 230.939 52.224 230.349 52.0888C229.759 51.9537 228.985 51.8861 228.027 51.8861C226.982 51.8861 226.131 51.9633 225.463 52.1178C224.806 52.2723 224.283 52.4846 223.906 52.7646C223.529 53.0445 223.267 53.3824 223.113 53.7685C222.977 54.1643 222.9 54.5987 222.9 55.0717V62.0992H220.975V50.5926H222.9V52.5136C223.045 52.1854 223.238 51.9054 223.5 51.6738C223.761 51.4324 224.051 51.2297 224.38 51.0656C224.709 50.9015 225.057 50.7664 225.444 50.6698C225.821 50.5636 226.208 50.4864 226.586 50.4285C226.963 50.3706 227.33 50.332 227.688 50.3126C228.046 50.2933 228.375 50.2837 228.665 50.2837C229.517 50.2837 230.252 50.332 230.871 50.4381C231.49 50.5443 232.013 50.6988 232.438 50.9112C232.874 51.1139 233.222 51.3745 233.483 51.6834C233.744 51.9923 233.948 52.3495 234.083 52.7549C234.228 53.1507 234.325 53.6044 234.373 54.1064C234.422 54.5987 234.441 55.1393 234.441 55.7281V62.1185H232.506L232.516 62.1089Z" fill="#1A1818"/>
<path d="M244.039 60.8343C244.89 60.8343 245.596 60.7957 246.157 60.7184C246.728 60.6412 247.192 60.5157 247.541 60.3613C247.889 60.1972 248.131 60.0041 248.276 59.7628C248.421 59.5214 248.498 59.2415 248.498 58.9229C248.498 58.6044 248.411 58.3341 248.237 58.1121C248.073 57.89 247.792 57.7066 247.386 57.5618C246.989 57.417 246.467 57.3205 245.819 57.2626C245.161 57.195 244.358 57.166 243.4 57.166C242.442 57.166 241.659 57.1854 241.069 57.2143C240.478 57.2433 240.024 57.3205 239.705 57.446C239.385 57.5618 239.172 57.7452 239.056 57.9769C238.95 58.2086 238.892 58.5272 238.892 58.9229C238.892 59.3187 238.95 59.6469 239.066 59.8979C239.182 60.1489 239.424 60.342 239.792 60.4771C240.15 60.6122 240.672 60.7088 241.339 60.7667C242.017 60.815 242.916 60.8343 244.039 60.8343ZM248.498 60.535C248.479 60.6122 248.324 60.815 248.044 61.1335C247.84 61.3748 247.579 61.5872 247.241 61.7706C246.912 61.954 246.457 62.0892 245.896 62.1857C245.345 62.2919 244.609 62.3498 243.71 62.3498C242.5 62.3498 241.475 62.2822 240.614 62.1568C239.763 62.0409 239.066 61.8479 238.524 61.5969C237.983 61.3362 237.586 61.008 237.334 60.6122C237.083 60.2165 236.967 59.7338 236.967 59.1836C236.967 58.6044 237.035 58.1121 237.17 57.7163C237.305 57.3108 237.509 56.973 237.77 56.7027C238.041 56.4324 238.36 56.22 238.727 56.0656C239.105 55.9111 239.521 55.7953 239.995 55.7181C240.478 55.6408 241.001 55.5829 241.562 55.5733C242.133 55.554 242.733 55.5443 243.371 55.5443C244.29 55.5443 245.045 55.5829 245.664 55.6601C246.273 55.7374 246.776 55.8339 247.163 55.9497C247.56 56.0656 247.85 56.1911 248.053 56.3166C248.256 56.4517 248.392 56.5772 248.489 56.6834C248.489 55.9401 248.46 55.303 248.392 54.7817C248.334 54.2604 248.227 53.8164 248.082 53.4592C247.947 53.1117 247.763 52.8318 247.531 52.6194C247.308 52.407 247.028 52.2429 246.689 52.1367C246.36 52.0305 245.983 51.963 245.538 51.934C245.093 51.8954 244.59 51.8857 244.029 51.8857C243.149 51.8857 242.413 51.9051 241.833 51.9533C241.252 51.9919 240.798 52.0788 240.449 52.2043C240.111 52.3298 239.869 52.5036 239.724 52.7352C239.588 52.9573 239.511 53.2468 239.511 53.604H237.586C237.586 52.9959 237.692 52.4842 237.905 52.0692C238.128 51.6541 238.486 51.3066 238.989 51.0556C239.492 50.7853 240.159 50.6019 240.982 50.4764C241.804 50.3605 242.81 50.293 244.019 50.293C245.228 50.293 246.186 50.3895 246.999 50.5826C247.811 50.7756 248.469 51.1135 248.972 51.5962C249.475 52.0788 249.843 52.7352 250.065 53.5654C250.298 54.3859 250.404 55.4188 250.404 56.6834V62.1181H248.479V60.5447L248.498 60.535Z" fill="#1A1818"/>
<path d="M255.55 46.7695H253.625V62.1085H255.55V46.7695Z" fill="#1A1818"/>
<path d="M96.2672 33.3037C95.8803 33.3037 95.532 33.1492 95.2224 32.8403C94.9419 32.5025 94.7968 32.0777 94.7968 31.5661V18.6694H90.6562V33.3037C90.6562 33.9698 90.7627 34.5683 90.9658 35.0799C91.198 35.5722 91.4979 35.9969 91.8558 36.3541C92.2138 36.692 92.6298 36.9429 93.0941 37.1263C93.5585 37.3098 94.0519 37.3966 94.5646 37.3966H125.096V33.3037H96.2769H96.2672Z" fill="#1A1818"/>
<path d="M157.794 33.3037C158.181 33.3037 158.519 33.1492 158.8 32.8403C159.109 32.5025 159.264 32.0777 159.264 31.5661V18.6694H163.405V33.3037C163.405 33.9698 163.288 34.5683 163.056 35.0799C162.853 35.5722 162.563 35.9969 162.205 36.3541C161.847 36.692 161.421 36.9429 160.928 37.1263C160.464 37.3098 159.99 37.3966 159.496 37.3966H132.873C132.36 37.3966 131.867 37.3098 131.403 37.1263C130.938 36.9429 130.522 36.692 130.164 36.3541C129.806 35.9969 129.507 35.5722 129.274 35.0799C129.071 34.5683 128.965 33.9698 128.965 33.3037V18.6694H133.105V31.5661C133.105 32.0777 133.231 32.5025 133.492 32.8403C133.754 33.1492 134.073 33.3037 134.46 33.3037H157.794Z" fill="#1A1818"/>
<path d="M172.778 33.3037H201.713V37.3966H171.192C170.679 37.3966 170.185 37.3098 169.721 37.1263C169.257 36.9429 168.841 36.692 168.483 36.3541C168.125 35.9969 167.825 35.5722 167.593 35.0799C167.39 34.5683 167.283 33.9698 167.283 33.3037V22.7624C167.283 22.1156 167.39 21.5364 167.593 21.0248C167.825 20.5132 168.125 20.0885 168.483 19.7506C168.841 19.3934 169.257 19.1231 169.721 18.9397C170.185 18.7563 170.679 18.6694 171.192 18.6694H201.713V22.7624H172.855C172.343 22.7624 171.965 22.9265 171.733 23.2644C171.53 23.5733 171.424 23.9883 171.424 24.5V31.5661C171.424 32.0777 171.549 32.5025 171.811 32.8403C172.072 33.1492 172.391 33.3037 172.778 33.3037Z" fill="#1A1818"/>
<path d="M209.734 33.3037H240.033V37.3966H205.594V18.6694H240.033V22.7624H209.734V25.9673H240.033V30.0602H209.734V33.3037Z" fill="#1A1818"/>
<path d="M248.053 22.7624V25.9673H272.741C273.128 25.9673 273.466 25.89 273.747 25.7356C274.057 25.5522 274.211 25.2046 274.211 24.693V24.2683C274.211 23.7277 274.066 23.3416 273.786 23.1099C273.524 22.8782 273.167 22.7624 272.702 22.7624H248.053ZM274.444 18.6694C274.937 18.6694 275.411 18.7756 275.875 18.9783C276.369 19.1617 276.794 19.432 277.152 19.7892C277.51 20.1271 277.8 20.5518 278.004 21.0634C278.236 21.575 278.352 22.1446 278.352 22.7624V25.9673C278.352 27.0774 278.071 27.9655 277.501 28.6315C276.959 29.2976 276.272 29.7417 275.45 29.9444L278.391 37.3966H274.173L270.883 30.0602H248.053V37.3966H243.912V18.6694H274.444Z" fill="#1A1818"/>
<path d="M311.052 22.7624C311.438 22.7624 311.777 22.9265 312.058 23.2644C312.367 23.5733 312.522 23.9883 312.522 24.5V37.3966H316.662V22.7624C316.662 22.1156 316.546 21.5364 316.314 21.0248C316.111 20.5132 315.821 20.0885 315.463 19.7506C315.105 19.3934 314.679 19.1231 314.186 18.9397C313.722 18.7563 313.248 18.6694 312.754 18.6694H282.232V37.3966H286.373V22.7624H311.061H311.052Z" fill="#1A1818"/>
<path d="M324.672 33.3037H354.971V37.3966H320.531V18.6694H354.971V22.7624H324.672V25.9673H354.971V30.0602H324.672V33.3037Z" fill="#1A1818"/>
</g>
<defs>
<clipPath id="clip0_2003_180">
<rect width="355" height="81" fill="white"/>
</clipPath>
</defs>
</svg>
