<svg id="LHG_Logo" xmlns="http://www.w3.org/2000/svg" viewBox="0 0 1763.201 135"><defs><style>.cls-1{fill:#05164d}</style></defs><path class="cls-1" d="M236.352.793c32.86 0 63.346 2.771 91.85 8.313l-9.504 9.106c-25.335-4.754-51.463-7.128-80.363-7.128h-7.525l-4.352 8.313h6.726c27.716 0 55.034 2.38 77.598 6.335l-9.106 8.71c-20.19-3.565-42.363-5.146-72.05-5.146h-8.319l-5.145 8.71c7.129-.397 12.67-.397 17.022-.397 20.984 0 43.945 1.587 60.576 4.357l-9.106 8.71c-15.838-2.374-29.693-3.168-50.676-3.168-7.916 0-19.793.397-25.336.794l-7.128 8.71c9.9-.794 19.397-1.19 30.09-1.19 13.061 0 28.502.793 44.737 2.77l-9.503 9.106c-11.084-1.19-22.96-1.977-31.28-1.977-31.273 0-53.837 5.145-72.05 16.229 21.771 23.357 59.386 37.218 101.352 37.218h3.956L252.19 135c-63.346-12.665-108.872-32.464-159.944-68.883C53.05 38.006 37.609 28.503.396 11.48L0 0l27.715 11.48 11.877-9.106L117.19 37.61l-8.318 6.335-38.403-16.626-5.145 4.749L81.95 41.57c17.815 9.503 31.676 14.251 42.76 14.648 28.502.397 53.843-19.402 69.676-53.447C207.849 1.581 222.1.793 236.352.793M1604.228 19.168v59.618c0 15.3 7.005 22.02 21.163 22.02 14.012 0 21.017-6.72 21.017-22.02V19.168h23.164v61.049c0 24.308-13.583 41.18-44.181 41.18-30.743 0-44.328-16.872-44.328-41.18v-61.05zm-241.993 46.176h-41.324v20.165h18.162v9.15c-4.862 3.573-11.728 6.15-22.595 6.15-20.017 0-28.597-10.583-28.597-31.602 0-21.02 8.724-31.602 27.74-31.602 13.87 0 19.877 3.29 23.02 13.156h24.308c-2.716-20.449-16.444-33.745-47.327-33.745-36.322 0-51.762 20.734-51.762 52.191 0 31.456 15.44 52.19 52.477 52.19 21.448 0 37.746-8.58 45.898-16.301zm-234.56-16.728c-2.003-21.307-14.727-31.6-40.609-31.6-27.883 0-40.465 13.296-40.465 31.315 0 19.016 10.58 27.595 29.025 29.884l14.159 1.716c12.58 1.57 15.87 4.862 15.87 10.58 0 6.865-5.147 10.723-19.017 10.723-16.587 0-19.589-6.433-20.448-14.582h-23.593c1.573 21.16 12.44 34.744 44.04 34.744 28.027 0 42.897-11.01 42.897-32.314 0-19.875-11.44-29.17-32.46-31.745l-14.155-1.713c-9.293-1.143-12.438-3.577-12.438-8.866 0-5.434 3.717-10.011 16.585-10.011 12.44 0 15.872 4.861 17.017 11.87zm-117.846 32.6-47.328-62.048h-21.735v100h23.163V57.195l47.33 61.973h21.733v-100h-23.163zm719.913-62.048c22.02 0 33.46 11.575 33.46 32.02 0 18.878-11.297 32.03-33.46 32.03h-23.164v35.95h-23.165v-100zm-3.72 43.889c9.294 0 13.155-3.86 13.155-11.869 0-8.005-3.86-11.865-13.154-11.865h-19.446v23.734zm-208.145-46.04c37.03 0 52.19 22.16 52.19 52.189 0 30.028-15.16 52.19-52.19 52.19-37.034 0-52.192-22.162-52.192-52.19 0-30.029 15.158-52.189 52.192-52.189m0 83.79c19.446 0 28.167-11.44 28.167-31.601s-8.721-31.6-28.167-31.6c-19.448 0-28.169 11.439-28.169 31.6 0 20.16 8.721 31.6 28.169 31.6m-58.267 18.362h-23.877l-1.717-12.5c-2.146-15.441-8.436-23.45-20.734-23.45h-14.3v35.95h-23.164v-100h46.757c23.45 0 34.747 12.148 34.747 31.164 0 12.011-5.29 20.878-16.158 25.164 8.294 5.006 14.013 14.015 16.3 29.17zm-39.893-56.111c9.15 0 13.583-3.86 13.583-11.869 0-8.005-4.433-11.865-13.583-11.865h-20.735v23.734zm-186.91 56.11h-25.307l-5.578-16.788h-39.321l-5.434 16.789h-25.308l36.319-100h28.31zm-37.32-36.378-13.154-40.177-13.3 40.177zm-262.24 36.379h-25.31l-5.576-16.79h-39.32l-5.435 16.79h-25.31l36.32-100h28.313zm-37.32-36.379-13.154-40.177-13.298 40.177zm-138.646-23.88V19.169H734.12v100h23.163V79.07h43.041v40.097h23.164v-100h-23.164V58.91zm-84.496-19.588v79.847h23.164V39.32h28.026V19.168h-79.215V39.32zm-84.498 79.847V81.362h43.756V61.197H588.29V39.323h46.33V19.168h-69.494v100zm-125.64-100v61.049c0 24.308 13.586 41.18 44.328 41.18 30.6 0 44.185-16.872 44.185-41.18v-61.05h-23.165v59.619c0 15.3-7.009 22.02-21.02 22.02-14.156 0-21.163-6.72-21.163-22.02V19.168zm-74.448 0v100h68.886V99.09h-45.721V19.168z"/></svg>