<svg width="188" height="36" viewBox="0 0 188 36" fill="none" xmlns="http://www.w3.org/2000/svg">
<path d="M158.947 35.2479L168.497 21.748L159.497 9.49814H167.897L170.997 14.4981L173.047 17.9481L175.147 14.4981L178.247 9.49814H186.647L177.647 21.748L187.197 35.2479H178.947L175.447 29.948L173.047 26.048C172.297 27.348 171.597 28.548 170.697 29.948L167.197 35.2479H158.947Z" fill="white"/>
<path d="M146.846 36C138.796 36 133.596 30.6 133.596 22.3001C133.596 14.2502 138.896 8.75021 146.646 8.75021C154.396 8.75021 159.696 13.8002 159.696 21.3001V21.4001C159.696 22.6001 159.596 23.7501 159.446 24.6001H140.496C140.646 28.2501 143.096 30.65 146.996 30.65C149.846 30.65 151.746 29.3501 152.446 27.3501H159.346C157.946 32.8 153.396 36 146.846 36ZM152.796 19.7001C152.696 16.2002 150.346 13.9502 146.696 13.9502C143.196 13.9502 140.746 16.0502 140.496 19.7001H152.796Z" fill="white"/>
<path d="M108.031 35.25V9.50021H114.481V12.4502C115.931 10.1002 118.881 8.75021 122.231 8.75021C127.581 8.75021 131.581 11.8002 131.581 18.9501V35.25H124.781V20.4001C124.781 16.9502 123.131 15.0002 120.031 15.0002C116.731 15.0002 114.781 17.2502 114.781 20.7001V35.25H108.031Z" fill="white"/>
<path d="M92.912 36C84.8621 36 79.6621 30.6 79.6621 22.3001C79.6621 14.2502 84.9621 8.75021 92.712 8.75021C100.462 8.75021 105.762 13.8002 105.762 21.3001V21.4001C105.762 22.6001 105.662 23.7501 105.512 24.6001H86.5621C86.7121 28.2501 89.162 30.65 93.062 30.65C95.912 30.65 97.812 29.3501 98.512 27.3501H105.412C104.012 32.8 99.462 36 92.912 36ZM98.862 19.7001C98.762 16.2002 96.412 13.9502 92.762 13.9502C89.262 13.9502 86.8121 16.0502 86.5621 19.7001H98.862Z" fill="white"/>
<path d="M65.7277 35.2497V6.69995H55.1777V0H83.4275V6.69995H72.8276V35.2497H65.7277Z" fill="white"/>
<rect x="8.03516" y="4.84808" width="26.5918" height="8.03492" transform="rotate(90 8.03516 4.84808)" fill="#FFE501"/>
<path d="M42.5468 13.712L42.5469 4.84854L33.6834 4.84854L33.6833 13.712L42.5468 13.712Z" fill="#FFE501"/>
<path d="M33.6836 22.5724L33.6836 13.7089L24.8201 13.7089L24.8201 22.5724L33.6836 22.5724Z" fill="#FFE501"/>
<path d="M42.5468 31.4396L42.5469 22.5761L33.6834 22.5761L33.6833 31.4396L42.5468 31.4396Z" fill="#FFE501"/>
<path d="M24.8193 13.712L24.8193 4.84854L15.9558 4.84854L15.9558 13.712L24.8193 13.712Z" fill="#FFE501"/>
<path d="M24.8193 31.4373L24.8193 22.5738L15.9558 22.5738L15.9558 31.4373L24.8193 31.4373Z" fill="#FFE501"/>
</svg>
